<svg width="16" height="18" viewBox="0 0 16 18" fill="none" xmlns="http://www.w3.org/2000/svg">
<path d="M4.36599 12.4903C5.34141 11.9273 6.12705 11.0866 6.6227 10.0753C7.11835 9.06399 7.30155 7.92798 7.14893 6.81214C6.99632 5.6963 6.5148 4.65121 5.7658 3.81015C5.0168 2.96908 4.03426 2.37017 2.94349 2.0898L3.01363 2.04931C6.88724 -0.187124 11.8401 1.13999 14.0765 5.01361C16.313 8.88723 14.9859 13.8401 11.1122 16.0765C7.23863 18.313 2.28576 16.9858 0.0493248 13.1122L0.00883128 13.0421C0.735174 13.2455 1.49489 13.3015 2.2432 13.2067C2.99151 13.112 3.71329 12.8684 4.36599 12.4903ZM10.3024 14.6738C11.5546 13.9515 12.5293 12.8312 13.0713 11.4911C13.6134 10.151 13.6918 8.6681 13.2939 7.27835C12.896 5.8886 12.0448 4.67184 10.8756 3.82165C9.70646 2.97147 8.28656 2.53672 6.84183 2.58656C7.69284 3.49099 8.29865 4.59787 8.60178 5.80216C8.90491 7.00646 8.89531 8.26823 8.5739 9.46778C8.25248 10.6673 7.6299 11.7649 6.76523 12.6562C5.90057 13.5476 4.82248 14.2033 3.63327 14.5611C4.63018 15.1829 5.77743 15.5219 6.9522 15.5417C8.12697 15.5616 9.28503 15.2616 10.3024 14.6738Z" fill="#202020"/>
</svg>
