<svg width="463" height="370" viewBox="0 0 463 370" fill="none" xmlns="http://www.w3.org/2000/svg"><path fill-rule="evenodd" clip-rule="evenodd" d="M50.359 68.784c2.624 0 4.75-2.104 4.75-4.7 0-2.597-2.126-4.701-4.75-4.701s-4.751 2.104-4.751 4.7c0 2.597 2.127 4.701 4.75 4.701zm76.498 182.671c1.926 0 3.489-1.545 3.489-3.452 0-1.906-1.563-3.452-3.489-3.452-1.927 0-3.489 1.546-3.489 3.452 0 1.907 1.562 3.452 3.489 3.452zM365.369 48.218c2.747 0 4.973-2.203 4.973-4.92 0-2.719-2.226-4.922-4.973-4.922s-4.974 2.203-4.974 4.921c0 2.718 2.227 4.921 4.974 4.921zm-181.093-5.692a2.068 2.068 0 002.079-2.057 2.068 2.068 0 00-2.079-2.056c-1.148 0-2.078.92-2.078 2.056 0 1.136.93 2.057 2.078 2.057zM55.667 50.018c1.865 0 3.377-1.496 3.377-3.342s-1.512-3.342-3.377-3.342c-1.866 0-3.378 1.496-3.378 3.342s1.512 3.342 3.378 3.342zm79.838 194.092a1.846 1.846 0 001.856-1.836 1.846 1.846 0 00-1.856-1.836 1.846 1.846 0 00-1.856 1.836c0 1.014.831 1.836 1.856 1.836zm49.848-212.087c1.209 0 2.189-.97 2.189-2.167 0-1.197-.98-2.167-2.189-2.167-1.21 0-2.19.97-2.19 2.167 0 1.196.98 2.166 2.19 2.166zm168.25 1.395c.697 0 1.262-.559 1.262-1.249 0-.69-.565-1.248-1.262-1.248-.697 0-1.262.559-1.262 1.248 0 .69.565 1.249 1.262 1.249zm-6.718 145.725c.965-1.909 3.229.551 3.897 1.286.668.734 1.485 1.542 2.524 1.726 1.967.367 2.895-1.396 4.454-2.057 2.19-.991 2.709 2.645 4.305 3.416.743.367 1.337.183 2.079-.037.854-.22 1.485-.734 2.412-.477 1.114.293 1.893 1.212 2.042 2.35.074.698 1.188.698 1.113 0-.222-2.24-2.375-4.04-4.676-3.452-.965.257-1.93 1.028-2.821.33-.52-.404-.817-1.212-1.188-1.762-.52-.772-1.113-1.506-2.078-1.653-1.114-.184-1.968.441-2.821 1.065-.891.661-1.448 1.249-2.598 1.065-1.151-.22-1.708-1.065-2.487-1.873-1.225-1.322-4.009-2.644-5.122-.477-.297.624.668 1.175.965.55zm8.574 7.786c1.707-.257 3.489.221 4.788 1.322.928.772 1.224 1.726 1.855 2.681 1.3 1.947 2.933.257 4.64.074 2.635-.294 4.009 2.754 6.533 3.158 1.484.22 2.82-.404 3.377-1.8.26-.661-.816-.954-1.076-.293-1.262 3.121-5.271-1.176-6.793-1.873-.668-.294-1.41-.514-2.115-.441-.965.073-2.71 1.469-3.601.661-.519-.477-.742-1.542-1.262-2.13a6.054 6.054 0 00-1.744-1.469c-1.522-.918-3.192-1.175-4.937-.918-.668.073-.371 1.138.335 1.028zM21.742 125.451c-.408-2.24-.483-4.443 2.116-5.325 1.039-.367 2.152-.551 3.006-1.285 1.559-1.322 1.447-3.416 1.336-5.289-.074-1.359-.408-3.452 1.67-2.901.668.184 1.374.441 2.042.11.52-.257.742-.698.89-1.212.335-1.101 0-1.983.966-2.901.78-.771 1.744-.992 2.82-.845.706.11.706-.991 0-1.101-1.187-.147-2.3.11-3.229.844-1.187.918-1.224 1.873-1.596 3.195-.556 1.873-1.93.331-3.303.588-.854.147-1.225.734-1.41 1.506-.335 1.469.148 3.048.11 4.517-.11 2.754-1.966 3.011-4.082 3.856-2.895 1.138-2.858 3.856-2.375 6.5.074.735 1.15.441 1.039-.257zm12.397-7.271c-2.227-2.828.334-5.619 3.415-5.362.928.073 1.707 0 2.19-.845.668-1.102.445-2.607.965-3.783.853-2.019 2.523-3.452 4.602-4.113.668-.22.371-1.285-.297-1.065-1.856.588-3.452 1.69-4.565 3.305-.631.919-1.077 1.947-1.262 3.049-.074.367-.074 1.065-.186 1.395-.297.955-1.225.845-2.078.882-3.935.22-6.125 4.076-3.564 7.345.409.551 1.188-.221.78-.808zm105.077-91.666c-.631-2.057 1.411-4.187 3.489-3.085 2.264 1.175 1.485 4.444-1.002 4.7-.705.074-.705 1.176 0 1.102 3.341-.33 4.825-4.627 1.819-6.574-2.895-1.872-6.384 1.029-5.382 4.187.223.624 1.299.33 1.076-.33zm123.042 208.562c-1.521 1.799.557 3.342 2.153 3.966 1.225.478 2.042 1.102 2.227 2.461.074.624.074 1.248.223 1.836.148.477.334.918.668 1.249.52.551 2.524 1.065 2.227 2.093-.186.698.891.992 1.076.294.26-.918-.037-1.579-.816-2.204-.52-.404-1.262-.514-1.708-.991-.705-.735-.482-1.91-.631-2.791-.148-.845-.408-1.58-1.076-2.167-.705-.588-4.788-1.543-3.563-3.012.482-.514-.297-1.285-.78-.734zm4.9-3.673c-.334.808-.037 1.58.631 2.13.631.515 1.633.551 2.19 1.139.594.624.519 1.469.668 2.277.185 1.028.557 1.799 1.522 2.314.705.367 1.484.477 2.152.881 1.225.771 1.93 2.093 2.116 3.489.074.698 1.188.698 1.113 0-.296-2.608-1.818-4.224-4.231-5.142-1.893-.697-1.336-2.277-1.967-3.746a2.294 2.294 0 00-.854-1.101c-.631-.441-2.746-.808-2.264-1.984.26-.624-.816-.918-1.076-.257zm12.953-221.012c-1.15-1.505 1.151-2.57 2.302-2.717.853-.11 1.744-.037 2.598-.184 1.188-.22 2.264-.771 3.081-1.69.742-.844.853-1.689 1.187-2.717.186-.624.668-1.653 1.374-1.946.259-.11.89.073 1.224.073.631.037 1.188.037 1.819-.11.705-.147.408-1.212-.297-1.065-1.484.294-3.526-.624-4.639.734-.409.514-.446 1.139-.52 1.763-.223 1.69-1.039 3.159-2.784 3.673-1.93.587-4.194-.184-5.79 1.395-.928.918-1.262 2.204-.482 3.269.408.624 1.373.073.927-.478zm11.247-.441c.037-1.836.965-3.525 2.598-4.48 1.225-.734 2.598-.66 4.009-.66 1.893.036 3.711 0 4.936-1.617.409-.587-.557-1.138-.965-.55-1.633 2.166-5.753.55-8.091 1.652-2.19 1.028-3.526 3.269-3.563 5.656-.038.697 1.076.697 1.076 0zM139.551 134.192c.334-.074.668-.184 1.039-.257.148.33.297.698.445 1.028.074.478-.111 1.028-.185 1.469-.075.551-.186 1.028-.149 1.579.074.808.408 1.69 1.151 2.094 1.113.587 2.375-.257 3.526.33 1.522.735 2.338 2.534 3.006 4.003.297.661 1.262.074.965-.551-.705-1.579-1.633-3.342-3.192-4.26-.779-.441-1.373-.441-2.227-.514-.891-.073-1.187.955-2.078-.845-.26-.587.074-1.469.148-2.056.186-1.286.26-2.828-1.188-3.379-.965-.367-2.152-.037-2.338 1.065-.111.698.965.992 1.077.294zm7.608-1.359c-1.076.735-.631 1.91.112 2.791.816.955 1.744 1.726 2.487 2.791.853 1.249 1.447 2.608 1.893 4.003.222.661 1.299.404 1.076-.294-.483-1.505-1.114-2.974-2.004-4.296-.409-.588-3.452-3.746-2.97-4.077.557-.367 0-1.322-.594-.918z" fill="#126047"/><path fill-rule="evenodd" clip-rule="evenodd" d="M93.563 48.88c1.15 13.624 2.227 27.47-.594 40.985-.148.697.928.991 1.076.293 2.858-13.625 1.782-27.544.631-41.279-.074-.697-1.187-.697-1.113 0z" fill="#85BBA6"/><path fill-rule="evenodd" clip-rule="evenodd" d="M94.194 49.247a225.52 225.52 0 0020.525-.037c5.902-.294 12.323-.294 17.816-2.644.669-.294.075-1.249-.556-.955-5.716 2.46-12.583 2.314-18.707 2.57-6.347.258-12.731.258-19.078-.036-.705-.037-.705 1.065 0 1.102z" fill="#85BBA6"/><path fill-rule="evenodd" clip-rule="evenodd" d="M131.607 46.419c3.564 13.441 4.417 27.47 2.45 41.242-.111.698.965.992 1.077.294 1.967-13.992 1.15-28.168-2.45-41.83-.149-.698-1.225-.404-1.077.294z" fill="#85BBA6"/><path fill-rule="evenodd" clip-rule="evenodd" d="M93.266 90.415c7.349 1.616 14.921 1.763 22.418 1.25 3.786-.258 7.609-.699 11.395-1.14 2.71-.33 5.531-.477 7.758-2.203.556-.44-.223-1.212-.78-.771-2.524 1.946-6.458 1.836-9.465 2.167-3.414.404-6.866.734-10.318.954-6.941.404-13.882.22-20.674-1.285-.742-.183-1.04.882-.334 1.028zm2.969-3.231c.891.036 1.745-.257 2.636-.33 1.076-.074 2.078.036 3.117.293.706.183 1.002-.882.297-1.065-.965-.257-1.967-.404-2.97-.367-1.038.036-2.04.404-3.08.367-.705-.037-.705 1.065 0 1.102zm.668-2.571c1.82.037 3.675.037 5.494.073.705 0 .705-1.101 0-1.101-1.819-.037-3.675-.037-5.494-.074-.705-.037-.705 1.065 0 1.102zm.372-2.754l4.862.22c.705.037.705-1.065 0-1.102l-4.862-.22c-.706-.037-.706 1.065 0 1.102zm.519-6.979c1.819-.22 3.638-.33 5.493-.293.706 0 .706-1.102 0-1.102a39.325 39.325 0 00-5.493.294c-.705.11-.705 1.212 0 1.102zm.371-2.9l5.234.11c.705 0 .705-1.102 0-1.102l-5.234-.11c-.705 0-.705 1.101 0 1.101zm-.371-2.498c1.596.11 3.155.074 4.714-.073.705-.074.705-1.175 0-1.102-1.559.183-3.155.183-4.714.073-.705-.073-.705 1.029 0 1.102zm.26-7.052a28.39 28.39 0 015.864-.513c.706 0 .706-1.102 0-1.102a28.924 28.924 0 00-6.161.55c-.668.148-.371 1.213.297 1.066zm-.111-2.68c2.078.037 4.157.037 6.272-.074.706-.036.706-1.138 0-1.101-2.078.11-4.157.147-6.272.073-.743-.037-.743 1.065 0 1.102zm-.78-2.865c2.301.074 4.603-.036 6.904-.257.705-.073.705-1.175 0-1.101-2.301.22-4.603.33-6.904.257-.705 0-.705 1.101 0 1.101zm12.397-1.028a109.708 109.708 0 0117.334-1.175c.705 0 .705-1.102 0-1.102a108.87 108.87 0 00-17.631 1.212c-.705.11-.408 1.175.297 1.065zm1.151 2.057c5.716-.478 11.469-.772 17.222-.955.705-.037.705-1.139 0-1.102a298.28 298.28 0 00-17.222.955c-.743.073-.743 1.175 0 1.102zm-.446 2.46c5.939-.294 11.915.404 17.854-.22.705-.074.705-1.175 0-1.102-5.939.661-11.915-.073-17.854.22-.705.037-.705 1.139 0 1.102zm-3.526 9.108c2.598 0 5.197-.037 7.795-.037.705 0 .705-1.101 0-1.101-2.598 0-5.197.036-7.795.036-.742 0-.742 1.102 0 1.102zm.26 2.791c2.784-.073 5.605-.147 8.389-.183.779 0 8.202-.404 8.202-.33.223.66 1.299.403 1.077-.295-.223-.77-.891-.66-1.596-.66-1.708 0-3.415.073-5.122.11-3.638.073-7.312.183-10.95.256-.742 0-.742 1.102 0 1.102zm0 2.755c2.227.11 4.417.11 6.644.073.705-.037.705-1.138 0-1.102a80.192 80.192 0 01-6.644-.073c-.742-.037-.742 1.065 0 1.102zm-1.299 6.316a283.098 283.098 0 0122.344-.55c.705 0 .705-1.102 0-1.102-7.46-.11-14.884.073-22.344.55-.705.037-.705 1.14 0 1.102zm1.151 2.424l5.604-.11c.705 0 .705-1.102 0-1.102l-5.604.11c-.706 0-.706 1.102 0 1.102zm10.095-.037c3.007-.293 6.05-.55 9.057-.734.705-.037.705-1.138 0-1.102-3.044.184-6.05.44-9.057.735-.705.073-.742 1.175 0 1.102zm-10.615 3.563c6.087-.074 12.174-.257 18.261-.478.706-.036.706-1.138 0-1.101-6.087.257-12.174.404-18.261.477-.705 0-.705 1.102 0 1.102zm29.805-21.558a155.243 155.243 0 0129.174-2.534c-.186-.147-.372-.257-.52-.404a174.614 174.614 0 018.128 55.822c0 .698 1.114.698 1.114 0a175.58 175.58 0 00-8.166-56.116c-.074-.22-.297-.404-.519-.404a155.622 155.622 0 00-29.471 2.571c-.742.11-.445 1.175.26 1.065z" fill="#85BBA6"/><path fill-rule="evenodd" clip-rule="evenodd" d="M116.315 91.223c.669 10.32-.779 20.603-4.305 30.299-.223.661.816.955 1.076.293a75.937 75.937 0 004.343-30.592c-.037-.697-1.151-.734-1.114 0z" fill="#85BBA6"/><path fill-rule="evenodd" clip-rule="evenodd" d="M112.195 122.33c9.354 3.929 19.598 3.525 29.508 2.607 10.801-1.028 21.417-2.754 31.809-5.802.668-.184.409-1.249-.297-1.065-10.095 2.938-20.377 4.7-30.881 5.692-9.873.955-20.228 1.542-29.582-2.387-.631-.294-1.188.661-.557.955z" fill="#85BBA6"/><path fill-rule="evenodd" clip-rule="evenodd" d="M125.261 94.272c-2.005 1.065-3.935 2.276-5.828 3.562-.371.257-.371.918.149.992 1.707.367 3.414.697 5.122 1.065.705.146 1.002-.919.297-1.066-1.708-.367-3.415-.697-5.122-1.065.037.331.074.661.148.992a58.668 58.668 0 015.827-3.562c.594-.294.038-1.249-.593-.918zm8.648-3.379c-2.45 3.93-4.9 7.86-7.349 11.752-.372.588.593 1.175.965.551 2.449-3.93 4.899-7.86 7.349-11.752.371-.588-.594-1.139-.965-.551zm1.707 8.337c2.19-.331 4.417-.662 6.607-.992.705-.11.408-1.175-.297-1.065-2.19.33-4.417.661-6.607.992-.705.11-.408 1.175.297 1.064zm11.061-5.913h-.111c-.26-.037-.483.037-.631.257-.038.037-.038.073-.075.11a.497.497 0 000 .55c.854 1.25 2.858 1.543 4.232 1.837.259.074.519.11.779.184-.037.037-.111.073-.148.11 0 .257-1.188 1.138-1.411 1.322l-2.45 2.314c-.519.477.26 1.285.78.771 1.002-.918 1.967-1.873 2.969-2.791.52-.514 1.559-1.175 1.336-2.02-.185-.698-.965-.771-1.596-.955-1.002-.257-2.932-.404-3.563-1.359v.551c.037-.037.037-.073.074-.11-.222.073-.408.184-.631.257h.112c.742.147 1.039-.918.334-1.028z" fill="#666666"/><path fill-rule="evenodd" clip-rule="evenodd" d="M139.068 69.445c1.93-.33 3.86-.44 5.827-.367.706.037.706-1.065 0-1.102a28.335 28.335 0 00-6.124.441c-.705.11-.408 1.139.297 1.028zm-.297 2.792a286.46 286.46 0 017.906-.661c.705-.037.705-1.139 0-1.102a286.46 286.46 0 00-7.906.66c-.705.074-.705 1.176 0 1.103zm1.188 4.149v.037c.185-.147.371-.257.519-.404h-.074c.149.074.334.184.483.257 0-.036-.037-.036-.037-.073-.038.22-.075.44-.075.66-.259.074-.222.111.149.074h.631c.371 0 .742-.036 1.113-.036.743-.074 1.485-.147 2.227-.294.706-.11.409-1.175-.297-1.065-.965.183-1.93.257-2.895.294-.594 0-1.299-.184-1.744.257a.553.553 0 00-.074.66c.148.221.334.331.593.331.223 0 .483-.183.52-.404v-.037c.186-.66-.891-.954-1.039-.257zm-.78 5.362c3.118-.44 6.236-1.028 9.391-.918.705.037.705-1.065 0-1.102-3.266-.11-6.496.515-9.688.955-.705.11-.408 1.175.297 1.065zm12.1-13.478c3.563-.477 7.127-.734 10.69-.844.705-.037.705-1.139 0-1.102-3.6.11-7.164.367-10.69.844-.705.074-.705 1.176 0 1.102zm2.561 4.628c2.227-.368 4.417-.698 6.644-1.066.706-.11.409-1.175-.297-1.064-2.227.367-4.416.697-6.644 1.064-.705.11-.408 1.176.297 1.066zm.743 6.427a59.765 59.765 0 015.753-.258c.705 0 .705-1.101 0-1.101-1.93 0-3.823.073-5.753.257-.705.073-.705 1.175 0 1.102zm3.34 2.093c2.339-.33 4.64-.551 7.015-.698.706-.037.706-1.138 0-1.102a98.576 98.576 0 00-7.312.735c-.705.11-.408 1.138.297 1.065z" fill="#85BBA6"/><path fill-rule="evenodd" clip-rule="evenodd" d="M121.141 109.439c.705 0 .705-1.102 0-1.102-.706 0-.706 1.102 0 1.102z" fill="#E8E8E8"/><path fill-rule="evenodd" clip-rule="evenodd" d="M119.953 108.448c.928.293 1.819.183 2.784.146 1.262-.036 2.524.037 3.786.147.705.074.705-1.028 0-1.101-1.077-.111-2.19-.184-3.267-.147-.965 0-2.041.22-2.969-.11-.705-.221-1.002.844-.334 1.065zm1.336 3.305a26.265 26.265 0 016.124.147c.706.073.706-1.029 0-1.102a31.046 31.046 0 00-6.124-.147c-.705.073-.705 1.175 0 1.102zm-3.229 4.664c1.744.661 3.563.551 5.419.551h6.458c3.786 0 7.869.404 11.543-.698.669-.22.409-1.285-.296-1.065-3.564 1.102-7.572.661-11.247.661h-5.753c-1.967 0-3.971.184-5.864-.514-.668-.257-.928.808-.26 1.065zm19.189-5.215c1.188-.074 2.376-.11 3.563-.184 1.188-.073 2.413-.257 3.527.221.668.257.965-.808.297-1.065-1.077-.441-2.153-.331-3.304-.257l-4.12.22c-.705 0-.705 1.102.037 1.065zm-4.602 10.026c5.976-.22 11.914-.551 17.89-1.028.705-.074.705-1.176 0-1.102-5.939.477-11.914.808-17.89 1.028-.743.037-.743 1.139 0 1.102zm66.476-104.924c1.67 17.408 1.299 34.889.928 52.334 0 .697 1.113.697 1.113 0 .409-17.445.743-34.926-.928-52.334-.074-.698-1.187-.698-1.113 0z" fill="#85BBA6"/><path fill-rule="evenodd" clip-rule="evenodd" d="M199.717 16.708c7.534.33 14.921-1.763 22.381-2.57a109.934 109.934 0 0122.79-.037c.705.073.705-1.029 0-1.102a109.927 109.927 0 00-22.79.037c-7.46.808-14.847 2.9-22.381 2.57-.743 0-.743 1.102 0 1.102z" fill="#85BBA6"/><path fill-rule="evenodd" clip-rule="evenodd" d="M244.405 13.807c1.002 3.856 1.151 7.822 1.225 11.752.111 4.223.26 8.483.408 12.707.297 8.336.669 16.71 1.114 25.046.037.698 1.151.698 1.113 0-.445-8.593-.853-17.187-1.15-25.78-.149-4.224-.26-8.448-.371-12.634-.112-3.82-.297-7.676-1.262-11.385-.186-.698-1.262-.404-1.077.294z" fill="#85BBA6"/><path fill-rule="evenodd" clip-rule="evenodd" d="M200.57 69.445c7.98 2.277 16.554 1.433 24.683.625 7.832-.771 15.589-2.24 22.753-5.656.631-.294.074-1.249-.557-.955-7.164 3.416-14.995 4.811-22.827 5.582-7.832.735-16.072 1.543-23.718-.66-.742-.221-1.039.844-.334 1.064zm45.765-45.759a66 66 0 0113.733-.661c2.376.147 4.751.404 7.127.808 1.002.183 2.116.257 3.081.587 1.373.478 1.299 1.47 1.521 2.755a216.817 216.817 0 013.378 27.25c.037.698 1.151.698 1.114 0a241.263 241.263 0 00-1.485-15.498 157.864 157.864 0 00-1.077-7.162l-.668-3.856c-.185-1.101-.259-2.497-.705-3.489-.631-1.432-3.192-1.395-4.528-1.616a64.802 64.802 0 00-7.052-.844c-4.937-.33-9.836-.074-14.736.66-.705.111-.408 1.176.297 1.066z" fill="#85BBA6"/><path fill-rule="evenodd" clip-rule="evenodd" d="M232.379 69.005c.669 1.836 1.077 3.672 1.151 5.619.037.955-.111 2.093.594 2.864.705.771 1.93.771 2.895.918 1.559.22 3.155.404 4.714.478 7.238.404 14.475-.514 21.639-1.47.705-.073.705-1.211 0-1.101-6.124.808-12.249 1.616-18.447 1.543a54.3 54.3 0 01-4.231-.184c-.928-.074-1.819-.184-2.747-.294-.631-.073-1.967-.037-2.45-.404-1.262-.918-.853-3.011-1.076-4.37-.186-1.36-.557-2.644-1.002-3.93-.223-.624-1.299-.367-1.04.33z" fill="#85BBA6"/><path fill-rule="evenodd" clip-rule="evenodd" d="M261.59 55.012c.817 3.526.965 7.162 1.151 10.798.186 3.452.371 6.94.52 10.393.297 7.051.482 14.102.556 21.19 0 .698 1.114.698 1.114 0-.074-7.308-.297-14.58-.594-21.888-.297-6.83-.111-14.066-1.67-20.75-.149-.734-1.225-.44-1.077.257z" fill="#85BBA6"/><path fill-rule="evenodd" clip-rule="evenodd" d="M262.333 55.673a169.14 169.14 0 0123.235.294c.705.074.705-1.028 0-1.102-7.721-.66-15.478-.734-23.235-.293-.706.073-.706 1.175 0 1.101zm1.373 41.941c.928 1.579 2.45 2.166 4.231 2.387 2.673.33 5.382.44 8.055.624 5.716.367 11.432.661 17.148.698 2.783 0 5.604-.037 8.388-.147l4.009-.22c.705-.037 1.93.073 2.561-.441.408-.331.445-.808.519-1.322.149-1.433.112-2.901.149-4.334.111-2.901.185-5.802.297-8.704.037-.697-1.077-.697-1.114 0l-.222 6.868-.112 3.269c-.037.587-.037 1.212-.074 1.8-.037 1.027-.148 1.395-1.262 1.688-.965.257-2.264.147-3.266.221-1.225.073-2.413.11-3.638.147-2.301.073-4.602.073-6.941.073-4.491-.037-9.019-.22-13.51-.514-2.301-.147-4.603-.294-6.941-.477-2.375-.184-5.939.146-7.312-2.167-.371-.625-1.336-.037-.965.55z" fill="#85BBA6"/><path fill-rule="evenodd" clip-rule="evenodd" d="M283.044 39.404c2.041 6.941 2.487 13.92 2.821 21.117.371 7.345.705 14.653 1.076 21.999.037.697 1.151.697 1.113 0-.371-7.566-.742-15.131-1.113-22.733-.334-7.051-.854-13.846-2.858-20.677-.186-.66-1.225-.367-1.039.294z" fill="#85BBA6"/><path fill-rule="evenodd" clip-rule="evenodd" d="M287.201 83.401c4.342 1.506 8.945 1.763 13.473 2.167 4.714.44 9.205.918 13.919.147a232.35 232.35 0 0014.067-2.755c4.269-.991 8.203-2.424 11.618-5.178.557-.44-.223-1.212-.78-.771-3.526 2.828-7.757 4.113-12.137 5.105a199.8 199.8 0 01-13.065 2.534c-4.602.734-9.019.22-13.622-.22-4.417-.441-8.945-.662-13.176-2.13-.668-.221-.965.844-.297 1.101zm-3.675-43.96c7.98-2.24 16.332-2.387 24.572-2.791 8.351-.44 16.591-.698 24.942-.074.705.037.705-1.065 0-1.101-8.574-.661-17.037-.33-25.61.11-8.129.404-16.332.624-24.201 2.828-.705.147-.408 1.212.297 1.028z" fill="#85BBA6"/><path fill-rule="evenodd" clip-rule="evenodd" d="M332.483 35.989c.112 6.978 1.04 13.919 2.302 20.786.631 3.49 1.373 6.941 2.152 10.393.743 3.416 1.374 6.868 2.561 10.137.223.66 1.299.367 1.077-.294-2.264-6.317-3.341-13.258-4.566-19.832-1.336-7.014-2.264-14.066-2.412-21.19-.037-.698-1.151-.698-1.114 0z" fill="#85BBA6"/><path fill-rule="evenodd" clip-rule="evenodd" d="M203.614 22.327c.185 1.983.334 3.966.52 5.95.074.697 1.187.697 1.113 0-.186-1.984-.334-3.967-.52-5.95-.037-.698-1.15-.698-1.113 0z" fill="#126047"/><path fill-rule="evenodd" clip-rule="evenodd" d="M204.616 26.036a26.857 26.857 0 013.341-.66c.705-.074.705-1.176 0-1.103-1.225.147-2.45.368-3.638.698-.668.184-.371 1.249.297 1.065z" fill="#126047"/><path fill-rule="evenodd" clip-rule="evenodd" d="M207.66 21.115c0 1.249 0 2.497.037 3.746 0 .992-.112 2.02.185 2.975.223.66 1.299.404 1.077-.294-.297-.992-.149-2.167-.149-3.158 0-1.102 0-2.167-.037-3.269 0-.734-1.113-.734-1.113 0zm3.452.478c1.447.22 2.895-.698 4.268-.258.668.22.965-.844.297-1.065-1.485-.44-2.821.478-4.269.258-.668-.11-1.002.954-.296 1.065z" fill="#126047"/><path fill-rule="evenodd" clip-rule="evenodd" d="M213.079 21.446a30.45 30.45 0 01.556 5.802c0 .698 1.114.698 1.114 0 0-2.056-.186-4.076-.594-6.096-.148-.698-1.225-.404-1.076.294zm5.27-1.249c-.111 2.57-.111 5.142-.074 7.712 0 .698 1.114.698 1.114 0-.038-2.57-.038-5.141.074-7.712 0-.698-1.114-.698-1.114 0z" fill="#126047"/><path fill-rule="evenodd" clip-rule="evenodd" d="M218.349 20.234c.854 1.873 2.636 3.011 3.267 4.994.148.404.816.588 1.002.147.891-1.91 1.194-2.46 2.085-4.37.334.073-.334-.037 0 0 .557 2.901.736 4.37 1.255 7.271.149.698 1.188.404 1.077-.293a724.672 724.672 0 01-1.634-8.74c-.074-.442-.816-.552-1.002-.148-.89 1.91-1.334 2.755-2.224 4.664-.335-.073.334.037 0 0-.669-2.13-1.933-2.13-2.861-4.113-.297-.624-1.262-.073-.965.588zm11.098-1.653c.557 3.085.705 6.133.52 9.255 0 .294.26.55.557.55 1.967 0 3.823-.33 5.679-.99.668-.258.371-1.323-.297-1.066-1.745.624-2.941.948-4.797.948-.186-.183.185.184 0 0 .185-3.232-.029-5.832-.622-8.99-.112-.698-1.188-.405-1.04.293z" fill="#126047"/><path fill-rule="evenodd" clip-rule="evenodd" d="M204.134 35.511a272.657 272.657 0 0121.23-.697c.706 0 .706-1.102 0-1.102a272.706 272.706 0 00-21.23.698c-.706.036-.706 1.138 0 1.101zm.185 4.738c1.596.037 3.229.11 4.825 0 1.485-.074 2.933-.367 4.417-.184.706.074.706-1.028 0-1.101-1.484-.184-2.932.11-4.417.183-1.596.074-3.229.037-4.825 0-.742-.037-.742 1.065 0 1.102zm-.037 3.121c2.672.148 5.308-.403 7.943 0 .705.11 1.002-.954.297-1.064-2.747-.404-5.493.11-8.24-.037-.742-.037-.742 1.065 0 1.102zm.631 7.015h7.275c.705 0 .705-1.102 0-1.102h-7.275c-.705 0-.705 1.102 0 1.102zm.483 2.571h5.27c.705 0 .705-1.102 0-1.102h-5.27c-.743 0-.743 1.102 0 1.102zm-1.077 4.076h7.424c.705 0 .705-1.101 0-1.101h-7.424c-.742 0-.742 1.101 0 1.101zm19.152-17.812h15.701c.705 0 .705-1.101 0-1.101h-15.701c-.705 0-.705 1.102 0 1.102zm.372 4.334h10.207c.705 0 .705-1.102 0-1.102h-10.207c-.706 0-.706 1.102 0 1.102zm13.993-.184h3.043c.705 0 .705-1.101 0-1.101h-3.043c-.743 0-.743 1.102 0 1.102zm-12.917 7.089h12.286c.705 0 .705-1.102 0-1.102h-12.286c-.705 0-.705 1.102 0 1.102zm-4.38 4.994h10.764c.705 0 .705-1.102 0-1.102h-10.764c-.742 0-.742 1.102 0 1.102zm4.38 2.717h8.166c.705 0 .705-1.101 0-1.101h-8.166c-.705 0-.705 1.102 0 1.102zm10.318-2.9h7.795c.705 0 .705-1.102 0-1.102h-7.795c-.742 0-.742 1.102 0 1.102zm12.88-26.186h7.163c.706 0 .706-1.101 0-1.101h-7.163c-.705 0-.705 1.101 0 1.101zm9.353-2.093c1.856.771 3.935.735 5.716 1.653v-.955a348.757 348.757 0 00-3.86 2.754c-.594.404-.037 1.36.557.955 1.299-.918 2.598-1.836 3.86-2.754.297-.22.408-.735 0-.955-1.893-.955-4.046-.955-5.976-1.763-.668-.257-.965.808-.297 1.065zm-8.24 6.978c.854.22 1.708.44 2.599.587.222.037 2.264.147 2.375.368-.111-.22-2.969 2.24-3.266 2.57-.483.515.297 1.286.779.772a14.125 14.125 0 012.97-2.35c.556-.331 1.187-.809.853-1.543-.334-.661-1.336-.551-1.967-.661a31.211 31.211 0 01-4.009-.845c-.742-.147-1.039.918-.334 1.102zm-.222 9.328h11.469c.705 0 .705-1.102 0-1.102h-11.469c-.705 0-.705 1.102 0 1.102zm11.617-3.562c.78.404 1.596.66 2.45.881.891.257 2.413.478 2.969 1.322v-.55c-.371.624-1.113 1.175-1.633 1.689l-1.596 1.579c-.445.44.112 1.175.668.881.075-.036.186-.11.26-.147.631-.367.074-1.285-.557-.955-.074.037-.185.11-.259.147l.668.882c.631-.624 1.299-1.249 1.93-1.91.519-.514 1.15-.955 1.484-1.579.112-.184.112-.404 0-.55-1.15-1.764-4.082-1.727-5.827-2.608-.631-.368-1.188.587-.557.918zm-11.691 9.842h8.054c.705 0 .705-1.102 0-1.102h-8.054c-.706 0-.706 1.102 0 1.102zm12.656-.257h8.611c.706 0 .706-1.102 0-1.102h-8.611c-.742 0-.742 1.102 0 1.102zm-11.654 7.529h8.796c.706 0 .706-1.102 0-1.102h-8.796c-.743 0-.743 1.102 0 1.102zm-12.1 13.661h13.621c.706 0 .706-1.101 0-1.101h-13.621c-.743 0-.743 1.101 0 1.101zm5.085 3.893h12.285c.705 0 .705-1.102 0-1.102h-12.285c-.706 0-.706 1.102 0 1.102zm35.483-13c-1.967-2.094-4.491 2.717-4.751 4.15-.334 1.91.149 3.856.668 5.692.409 1.506.817 2.791.223 4.334-.52 1.285-1.559 2.46-2.821 3.011-.482.22-.26 1.065.297 1.028 4.491-.44 3.229 8.043 4.38 10.76 1.113 2.572 3.674 3.783 6.384 3.343.705-.11.408-1.175-.297-1.065-5.79.918-5.493-5.436-6.013-9.182-.334-2.313-1.633-5.251-4.491-4.958.111.331.186.698.297 1.029 2.338-1.029 4.083-3.893 3.637-6.427-.334-2.02-1.187-3.893-1.262-5.95a6.575 6.575 0 01.372-2.534c.111-.257 1.818-3.231 2.561-2.423.519.514 1.299-.294.816-.808zm17.705 23.21c-.928.991-.631 2.167-.111 3.342.445.991 1.521 2.167 1.484 3.268 0 2.02-2.375 2.938-3.934 3.526-.668.257-.371 1.322.297 1.065 1.856-.698 3.934-1.58 4.565-3.636.26-.771.186-1.542-.111-2.277-.446-1.138-2.598-3.305-1.411-4.517.52-.514-.297-1.285-.779-.771zM367.076 95.3a125.726 125.726 0 003.675 47.192c.185.698 1.262.404 1.076-.294A124.21 124.21 0 01368.19 95.3c.074-.698-1.04-.698-1.114 0z" fill="#85BBA6"/><path fill-rule="evenodd" clip-rule="evenodd" d="M368.115 95.484c9.762.66 20.043 2.166 29.694-.294.705-.184.408-1.249-.297-1.065-9.502 2.46-19.709.918-29.397.257-.742-.037-.742 1.065 0 1.102z" fill="#85BBA6"/><path fill-rule="evenodd" clip-rule="evenodd" d="M397.066 94.749c-1.225 14.029 2.302 28.168 9.948 40.03.371.588 1.336.037.965-.55a63.112 63.112 0 01-9.799-39.48c.074-.698-1.039-.698-1.114 0z" fill="#85BBA6"/><path fill-rule="evenodd" clip-rule="evenodd" d="M371.567 142.822c5.679 2.057 12.694 1.029 18.447-.257a53.85 53.85 0 0017.334-7.308c.594-.367.037-1.322-.557-.955a52.575 52.575 0 01-16.443 7.051c-5.716 1.359-12.805 2.461-18.484.404-.668-.257-.965.808-.297 1.065zm3.155-41.242a40.338 40.338 0 00-5.642 4.664c-.334.331-.111.955.409.955a617.29 617.29 0 018.277-.184c.705 0 .705-1.102 0-1.102-2.747.074-5.531.147-8.277.184.148.331.26.624.408.955 1.67-1.653 3.452-3.158 5.419-4.481.557-.404 0-1.395-.594-.991zm5.159 1.506a48.067 48.067 0 018.612.11c.705.073.705-1.028 0-1.102a48.206 48.206 0 00-8.612-.11c-.705.037-.705 1.138 0 1.102z" fill="#85BBA6"/><path fill-rule="evenodd" clip-rule="evenodd" d="M388.864 101.323c1.781.404 3.526.918 5.27 1.542-.074-.294-.148-.624-.26-.918a51.69 51.69 0 00-3.452 2.901c-.519.478.26 1.249.78.772 1.113-.992 2.264-1.983 3.452-2.902.371-.293.111-.808-.26-.918a32.115 32.115 0 00-5.271-1.542c-.668-.147-.965.881-.259 1.065zm-19.19 12.67c1.633.11 3.229.184 4.863.294.705.037.705-1.065 0-1.102-1.634-.11-3.23-.184-4.863-.294-.705-.036-.705 1.065 0 1.102zm8.24 0c4.566-.698 9.131-1.396 13.659-2.093.705-.11.409-1.176-.297-1.065-4.565.697-9.13 1.395-13.659 2.093-.705.11-.408 1.175.297 1.065zm-7.423 3.599h3.489c.705 0 .705-1.102 0-1.102h-3.489c-.706 0-.706 1.102 0 1.102zm.26 2.681c1.336.11 2.635 0 3.897-.294.705-.147.408-1.212-.297-1.065a13.112 13.112 0 01-3.6.257c-.706-.073-.706 1.029 0 1.102zm-.409 4.774c4.937-.514 10.356-.514 15.07-2.13.668-.22.371-1.285-.297-1.065-4.64 1.579-9.947 1.579-14.773 2.094-.705.073-.705 1.175 0 1.101zm9.02-6.133a118.778 118.778 0 0015.218-2.644c.705-.184.408-1.249-.297-1.065-4.9 1.212-9.873 2.057-14.921 2.607-.706.074-.706 1.176 0 1.102zm-7.795 10.65a9.484 9.484 0 003.378-.257c.705-.183.408-1.248-.297-1.065a8.693 8.693 0 01-3.081.221c-.705-.074-.705 1.028 0 1.101zm8.277-1.175c1.67.184 3.266-.294 4.9-.661 2.004-.44 4.008-.881 5.975-1.322.706-.147.409-1.212-.297-1.065-1.744.404-3.526.771-5.27 1.175-1.745.368-3.526.955-5.308.772-.705-.111-.705.991 0 1.101zm-2.264 1.983c-.928.257-1.67.882-1.893 1.837-.074.367-.037.808.074 1.175.112.294 1.671 2.24.854 2.46-.334.074-.557.515-.334.808.891 1.212.779 2.975 2.116 3.893.853.588 1.781.625 2.561-.073.519-.478-.26-1.249-.78-.771-1.336 1.248-2.412-2.865-2.932-3.599-.111.257-.223.55-.334.807.668-.183 1.039-.55 1.113-1.248.186-1.139-2.524-3.599-.148-4.224.705-.183.408-1.248-.297-1.065zm2.858 4.775c3.341-.147 6.644-.404 9.948-.772.705-.073.705-1.175 0-1.101-3.304.367-6.607.624-9.948.771-.705.037-.705 1.138 0 1.102zm12.1-5.84c.297.037.78-.073 1.077 0 1.596.441.927.808 1.039 1.616.074.625 0 1.176.185 1.8.186.661.557 1.285.78 1.946.334.955.371 1.139-.334 1.983-.668.772-.668.772-1.559.919-.705.11-.408 1.175.297 1.065 1.113-.184 2.227-.588 2.746-1.653.594-1.249-.037-2.461-.519-3.636a5.885 5.885 0 01-.483-2.644c0-.514.075-1.065-.148-1.542-.631-1.286-1.93-.808-3.081-.955-.705-.074-.705 1.028 0 1.101z" fill="#85BBA6"/><path fill-rule="evenodd" clip-rule="evenodd" d="M316.647 50.103c0-1.617-1.583-1.16-2.425-.492-1.348 1.054-2.965 3.443-3.2 5.2-.27 2.214 2.054 1.793 3.503 1.652 1.819-.176 4.379.527 2.964 3.057-.91 1.617-2.762 2.355-4.446 2.425-.64.035-.64 1.09 0 1.054 2.56-.14 7.309-2.67 5.591-6.114-.741-1.441-2.391-1.652-3.806-1.546-.371.035-1.415.316-1.785.175-1.348-.527-.607-1.651-.27-2.32.236-.456.472-.948.775-1.37.101-.14 2.055-2.178 2.055-1.757.033.738 1.044.738 1.044.036z" fill="#126047"/><path d="M306.174 57.425c-.627-1.205-.889-2.21-1.674-4.219-1.43.485-1.046.803-2.721.603-.209-1.005 2.303-.886 3.558-1.809.838 1.124 2.287 5.36 3.208 7.008 2.135 3.937-3.767 6.83-6.948 6.991-.796.04-.796-1.165 0-1.205 2.093-.08 4.395-.924 5.525-2.773 1.13-1.848-.32-3.39-.948-4.596z" fill="#126047"/><path fill-rule="evenodd" clip-rule="evenodd" d="M2.96 272.021c2.042 14.323 3.713 28.683 5.086 43.079.074.698 1.188.698 1.113 0a946.169 946.169 0 00-5.122-43.372c-.111-.698-1.15-.404-1.076.293z" fill="#7AAC9B"/><path fill-rule="evenodd" clip-rule="evenodd" d="M8.083 315.688c11.952 5.876 26.167 5.986 38.23.403.631-.293.075-1.248-.556-.954-11.692 5.435-25.574 5.251-37.117-.404-.631-.331-1.188.624-.557.955z" fill="#7AAC9B"/><path fill-rule="evenodd" clip-rule="evenodd" d="M47.13 272.829a1095.178 1095.178 0 01-.928 42.785c-.037.698 1.076.698 1.113 0 .594-14.249.891-28.535.928-42.785 0-.697-1.113-.697-1.113 0z" fill="#7AAC9B"/><path fill-rule="evenodd" clip-rule="evenodd" d="M3.258 272.205c14.475 4.334 29.73 2.791 44.503 1.138.705-.073.705-1.175 0-1.101-14.699 1.616-29.805 3.195-44.206-1.102-.668-.22-.965.845-.297 1.065zm5.493 38.011c1.262-2.498 4.12 1.028 5.122 1.909.928.808 2.005 1.286 3.267 1.212 3.117-.147 5.753-3.195 8.945-2.424 3.117.772 4.75 3.93 8.314 3.599 4.008-.367 8.091-5.068 12.174-2.717.631.367 1.188-.588.557-.955-3.898-2.24-7.498.991-11.135 2.203-2.784.918-4.603-.147-6.793-1.689-1.336-.918-2.71-1.726-4.417-1.616-3.897.22-7.163 4.517-10.726 1.065-1.04-1.028-1.893-2.13-3.452-2.387-1.188-.184-2.264.184-2.82 1.249-.335.624.63 1.175.964.551zm-1.039-6.354c12.805 3.452 26.353 3.232 39.01-.734.668-.221.408-1.286-.297-1.065-12.472 3.892-25.834 4.113-38.416.734-.705-.184-1.002.845-.297 1.065zm-1.819-12.78c13.622 3.305 27.949 3.011 41.385-.918.668-.184.409-1.249-.297-1.065-13.288 3.892-27.355 4.186-40.791.918-.705-.184-1.002.881-.297 1.065zm-.631-9.549c2.227-1.652 4.417.771 6.124 1.983 1.337.955 2.784 1.433 4.417 1.249 3.378-.441 6.607-3.893 10.133-3.012 1.93.478 3.155 2.351 5.122 2.681 1.485.257 2.858-.44 4.046-1.212 2.004-1.248 3.637-2.24 6.124-2.056 2.264.147 4.38.698 6.681.33.705-.11.409-1.175-.297-1.065-2.56.368-5.048-.514-7.609-.404-1.855.074-3.303.808-4.825 1.837-.853.551-1.707 1.212-2.71 1.432-1.521.367-2.672-.514-3.822-1.322-1.337-.918-2.673-1.579-4.38-1.396-3.452.331-6.607 3.82-10.17 3.085-3.08-.624-5.902-5.692-9.465-3.085-.482.441.074 1.396.631.955z" fill="#7AAC9B"/><path fill-rule="evenodd" clip-rule="evenodd" d="M13.242 272.976c-1.707-1.726-7.015-7.382-4.083-9.805a.503.503 0 00.075-.662c-2.302-3.268-4.826-6.757-5.085-10.87-.112-1.8.668-3.232.816-4.921.149-1.616-.705-3.416-1.113-4.958-2.005-8.006-3.415-16.747-2.636-25.01.186-2.02.557-4.113 1.374-5.986 1.559-3.673 4.714-.294 6.05 1.542 2.227 3.085 3.748 6.574 5.048 10.136 2.783 7.676 5.01 15.572 6.83 23.541a205.349 205.349 0 014.379 28.132c.074.697 1.188.697 1.113 0a212.058 212.058 0 00-4.268-27.728c-2.004-9.071-4.491-18.252-7.98-26.846-1.41-3.452-3.155-7.308-5.939-9.916-2.078-1.983-4.9-2.35-6.161.588-1.596 3.672-1.745 7.859-1.633 11.825a95.69 95.69 0 001.521 14.176c.483 2.571 1.04 5.105 1.708 7.602.408 1.506.705 2.608.26 4.077a10.26 10.26 0 00-.483 3.195c0 4.554 2.71 8.483 5.234 12.046.037-.221.074-.441.074-.661-3.638 3.048 1.893 9.218 4.083 11.385.556.367 1.336-.404.816-.882z" fill="#7AAC9B"/><path fill-rule="evenodd" clip-rule="evenodd" d="M21.965 244.294c.334-3.232.668-6.501 1.855-9.549.706-1.799 1.708-3.268 2.933-4.737.853-1.029 1.447-2.094 2.227-3.159 2.264-3.158 4.417.331 4.825 2.608.334 2.02.482 4.076.557 6.133a63.855 63.855 0 01-.669 11.899c-.074.588.669.991 1.003.441.853-1.359 3.489-4.224 4.788-1.176.408.955.148 2.351.111 3.342a90.792 90.792 0 01-.816 8.41c-.743 5.105-1.968 10.173-3.6 15.094-.224.662.853.955 1.075.294 2.339-7.161 3.824-14.58 4.343-22.072.149-2.093.965-6.022-1.559-7.198-2.3-1.065-4.231 1.029-5.344 2.755l1.002.44c.742-4.994.965-9.989.52-15.02-.26-2.755-.52-8.667-4.752-8.263-1.559.147-2.338 1.505-3.08 2.681-1.151 1.909-2.821 3.378-3.86 5.361-1.93 3.636-2.339 7.786-2.747 11.789 0 .625 1.113.625 1.188-.073zM3.37 210.029c7.98 20.713 12.285 42.491 16.516 64.159.149.698 1.225.404 1.076-.294-4.23-21.667-8.536-43.482-16.516-64.158-.26-.662-1.337-.368-1.077.293z" fill="#7AAC9B"/><path fill-rule="evenodd" clip-rule="evenodd" d="M2.85 241.062c5.419 3.122 9.761 7.602 12.693 13.074.335.625 1.3.074.966-.551a34.22 34.22 0 00-13.066-13.478c-.668-.367-1.224.588-.593.955zm10.132-21.227c-.668 6.133-1.262 12.303-.52 18.436.075.698 1.188.698 1.114 0-.742-6.17-.148-12.303.52-18.436.074-.698-1.04-.698-1.114 0zm17.779 5.913c-.853 15.424-1.67 30.886-2.524 46.31-.037.698 1.077.698 1.114 0 .854-15.424 1.67-30.886 2.524-46.31.037-.735-1.077-.735-1.114 0z" fill="#7AAC9B"/><path fill-rule="evenodd" clip-rule="evenodd" d="M20.962 243.67a116.882 116.882 0 007.275 18.032c.335.624 1.3.073.965-.551-2.895-5.729-5.27-11.679-7.163-17.775-.223-.661-1.3-.404-1.077.294zm8.5 23.43a26.984 26.984 0 0010.059-9.805c.371-.625-.594-1.176-.965-.551-2.338 3.966-5.642 7.161-9.65 9.401-.631.368-.075 1.286.556.955zm-25.796 5.325c2.227-.147 5.716-.918 7.35 1.065l.667-.881a15.528 15.528 0 00-4.602-1.579c-.112.367-.186.698-.297 1.065a43.81 43.81 0 015.27 1.212c.706.22.966-.845.297-1.065a43.816 43.816 0 00-5.27-1.212c-.705-.11-1.002.918-.297 1.065a16.37 16.37 0 014.343 1.469c.593.294 1.076-.404.668-.882-1.893-2.313-5.53-1.542-8.129-1.395-.705.073-.705 1.175 0 1.138zm33.22.404c-.075-.367 4.49-.147 4.75-.11 1.56.074 3.155.147 4.714.184v-1.102c-2.932.147-5.864.294-8.796.404-.706.037-.706 1.065 0 1.102 1.633.073 3.266.11 4.9.073.704 0 .704-1.102 0-1.102-1.634.037-3.267.037-4.9-.073v1.102c2.932-.147 5.864-.294 8.796-.404.706-.037.706-1.065 0-1.102-2.858-.11-5.827-.477-8.685-.367-1.076.036-2.116.404-1.819 1.689.112.698 1.188.404 1.04-.294z" fill="#7AAC9B"/><path fill-rule="evenodd" clip-rule="evenodd" d="M81.723 366.038c5.567-6.905 11.097-13.772 16.665-20.676 5.085-6.28 10.17-12.597 16.109-18.106.519-.477-.26-1.249-.78-.771-5.938 5.545-11.023 11.825-16.108 18.105-5.568 6.905-11.098 13.772-16.666 20.677-.445.55.334 1.322.78.771z" fill="#E8E8E8"/><path fill-rule="evenodd" clip-rule="evenodd" d="M113.717 327.036h181.501c.705 0 .705-1.102 0-1.102H113.717c-.742 0-.742 1.102 0 1.102z" fill="#E8E8E8"/><path fill-rule="evenodd" clip-rule="evenodd" d="M295.032 327.146c13.251 13.478 25.722 27.654 37.303 42.528.445.55 1.41 0 .965-.551a490.13 490.13 0 00-37.488-42.748c-.483-.515-1.299.257-.78.771zm-274.181 4.076h51.74c.706 0 .706-1.101 0-1.101h-51.74c-.705 0-.705 1.101 0 1.101zm96.652-22.218h241.073c.705 0 .705-1.102 0-1.102H117.503c-.705 0-.705 1.102 0 1.102zm265.496.477h78.576c.705 0 .705-1.102 0-1.102h-78.576c-.705 0-.705 1.102 0 1.102zm-66.364 15.939h42.944c.705 0 .705-1.102 0-1.102h-42.944c-.706 0-.706 1.102 0 1.102zm63.914 4.333h32.7c.705 0 .705-1.101 0-1.101h-32.7c-.705 0-.705 1.101 0 1.101z" fill="#E8E8E8"/><path fill-rule="evenodd" clip-rule="evenodd" d="M78.865 308.269h40.42c.705 0 .705-1.102 0-1.102h-40.42c-.743 0-.743 1.102 0 1.102zm38.007 4.774h101.069c.705 0 .705-1.101 0-1.101H116.872c-.705 0-.705 1.101 0 1.101zm78.465-4.774h136.701c.705 0 .705-1.102 0-1.102H195.337c-.705 0-.705 1.102 0 1.102zm136.701 7.161h96.281c.705 0 .705-1.101 0-1.101h-96.281c-.705 0-.705 1.101 0 1.101zM15.32 353.037h30.325c.705 0 .705-1.102 0-1.102H15.321c-.743 0-.743 1.102 0 1.102zm257.999-6.647h43.798c.705 0 .705-1.102 0-1.102h-43.798c-.742 0-.742 1.102 0 1.102zm115.508 1.395h39.455c.705 0 .705-1.101 0-1.101h-39.455c-.706 0-.706 1.101 0 1.101z" fill="#161616"/><path fill-rule="evenodd" clip-rule="evenodd" d="M57.263 214.179v139.886a872.68 872.68 0 009.761-1.028V213.151c-3.229.331-6.495.661-9.761 1.028zm282.272 1.506c-.074 45.796-.185 91.556-.259 137.352h9.502V214.4c-3.044.44-6.125.881-9.243 1.285z" fill="#fff"/><path fill-rule="evenodd" clip-rule="evenodd" d="M105.366 307.498c-.371-19.722-.483-39.92-.26-60.523.149-13.258.408-26.295.78-39.186-3.935-.073-7.87-.184-11.84-.257-.075 33.163-.186 66.289-.26 99.452 3.86.183 7.72.367 11.58.514zm196.385-97.652c.074 32.391.185 64.783.259 97.175 3.527-.074 7.015-.184 10.542-.258l.779-98.68c-3.86.551-7.72 1.175-11.58 1.763z" fill="#000"/><path fill-rule="evenodd" clip-rule="evenodd" d="M41.34 211.351c-.075 2.718-.186 5.436-.26 8.153 106.413.184 212.864.331 319.278.515-.26-2.865-.52-5.766-.78-8.631a3601.129 3601.129 0 00-105.671-3.048 3654.32 3654.32 0 00-212.567 3.011z" fill="#000"/><path fill-rule="evenodd" clip-rule="evenodd" d="M41.34 211.094c106.079.074 212.159.184 318.276.257-11.321-10.613-22.642-21.19-33.925-31.804-85.591.074-171.22.184-256.81.258a20314.768 20314.768 0 00-27.541 31.289z" fill="#fff"/><path fill-rule="evenodd" clip-rule="evenodd" d="M41.376 211.829a824.04 824.04 0 0128.32-31.804c.483-.514-.297-1.285-.78-.771a797.39 797.39 0 00-28.32 31.804c-.445.514.335 1.322.78.771z" fill="#161616"/><path fill-rule="evenodd" clip-rule="evenodd" d="M40.374 211.829v6.867c0 .698 1.114.698 1.114 0v-6.867c0-.698-1.114-.698-1.114 0zm1.486 8.336h318.09c.705 0 .705-1.101 0-1.101H41.859c-.742 0-.742 1.101 0 1.101z" fill="#161616"/><path fill-rule="evenodd" clip-rule="evenodd" d="M360.952 219.137v-8.226c0-.698-1.114-.698-1.114 0v8.226c0 .735 1.114.735 1.114 0zm-320.021 1.028c.706 0 .706-1.101 0-1.101-.705 0-.742 1.101 0 1.101z" fill="#161616"/><path fill-rule="evenodd" clip-rule="evenodd" d="M41.377 211.939h318.09c.705 0 .705-1.102 0-1.102H41.377c-.706 0-.706 1.102 0 1.102zm28.617-31.51h255.734c.705 0 .705-1.102 0-1.102H69.994c-.706 0-.706 1.102 0 1.102z" fill="#161616"/><path fill-rule="evenodd" clip-rule="evenodd" d="M325.171 180.466c11.247 10.319 22.53 20.676 33.777 30.996.519.477 1.299-.294.779-.772-11.246-10.319-22.53-20.676-33.776-30.996-.52-.477-1.299.294-.78.772zM57.003 219.615v133.863c0 .698 1.113.698 1.113 0V219.615c0-.735-1.113-.735-1.113 0zm9.687.44V353c0 .698 1.114.698 1.114 0V220.055c0-.698-1.114-.698-1.114 0z" fill="#161616"/><path fill-rule="evenodd" clip-rule="evenodd" d="M57.56 354.543c2.932-.184 5.827-.367 8.76-.514.704-.037.704-1.139 0-1.102-2.933.184-5.828.367-8.76.514-.706.074-.743 1.175 0 1.102zm281.048-134.928v133.863c0 .698 1.113.698 1.113 0V219.615c0-.735-1.113-.735-1.113 0zm9.687.44V353c0 .698 1.114.698 1.114 0V220.055c0-.698-1.114-.698-1.114 0z" fill="#161616"/><path fill-rule="evenodd" clip-rule="evenodd" d="M339.61 353.808c2.932-.183 5.827-.367 8.759-.514.706-.037.706-1.138 0-1.102-2.932.184-5.827.368-8.759.515-.705.036-.705 1.138 0 1.101zM93.6 220.129v86.488c0 .697 1.113.697 1.113 0v-86.488c0-.698-1.113-.698-1.113 0zm11.098.514v85.974c0 .697 1.113.697 1.113 0v-85.974c0-.698-1.113-.698-1.113 0z" fill="#161616"/><path fill-rule="evenodd" clip-rule="evenodd" d="M94.64 307.682h10.615c.705 0 .705-1.102 0-1.102H94.639c-.705 0-.705 1.102 0 1.102zm207.111-88.031v86.966c0 .697 1.113.697 1.113 0v-86.966c0-.697-1.113-.734-1.113 0zm10.578.992v85.974c0 .697 1.113.697 1.113 0v-85.974c0-.698-1.113-.698-1.113 0z" fill="#161616"/><path fill-rule="evenodd" clip-rule="evenodd" d="M302.79 307.682h10.096c.705 0 .705-1.102 0-1.102H302.79c-.705 0-.705 1.102 0 1.102z" fill="#161616"/><path fill-rule="evenodd" clip-rule="evenodd" d="M264.857 173.561c-.631.808-.78 1.653-.854 2.387-.817 5.876-.52 10.32-.52 10.32.149 2.204.297 5.472.409 9.659 1.596 1.653 3.117 2.314 4.082 2.644 2.784.918 5.42.294 10.542-.991a65.506 65.506 0 004.825-1.396c.816-1.506 1.076-2.791 1.15-3.636.149-1.799-.408-2.644.26-3.562.668-.918 1.633-.735 2.079-1.726.26-.588.222-1.469-.186-1.8-.705-.477-1.967.771-2.598.257-.186-.147-.186-.294-.26-1.652-.111-1.837-.148-2.057.074-2.241.186-.22.817-.22 2.005-.183.891 0 1.299 0 1.484.147.706.551.409 2.35-.259 3.635-.854 1.616-2.153 2.131-2.005 2.461.186.331 1.819 0 3.155-.808.78-.477 1.93-1.138 2.19-2.387.446-1.836-1.336-3.452-1.596-3.709-2.19-2.02-5.382-1.359-5.79-1.249.037-1.763.074-3.526.148-5.288-4.788-2.094-8.796-2.571-11.283-2.645-5.234-.183-6.607 1.139-7.052 1.763z" fill="#fff"/><path fill-rule="evenodd" clip-rule="evenodd" d="M263.224 175.214a141.642 141.642 0 00-.223 20.235c.037.698 1.15.698 1.113 0a141.584 141.584 0 01.223-20.235c.074-.698-1.039-.698-1.113 0z" fill="#161616"/><path fill-rule="evenodd" clip-rule="evenodd" d="M263.075 195.743c4.974 5.436 12.731 3.746 18.781 1.432.668-.257.371-1.322-.297-1.065-5.679 2.167-13.028 4.004-17.705-1.138-.482-.514-1.261.257-.779.771zm1.225-20.566c1.447-2.607 6.347-2.864 9.019-2.791 3.192.074 6.236.918 9.057 2.424.631.33 1.188-.624.557-.955-3.304-1.799-7.053-2.718-10.839-2.571-2.858.11-7.2.588-8.759 3.342-.334.625.631 1.175.965.551z" fill="#161616"/><path fill-rule="evenodd" clip-rule="evenodd" d="M282.487 174.92v4.958c0 .367.371.588.705.514 1.856-.404 4.788 0 5.865 1.8 2.115 3.452-2.005 4.186-4.12 5.582-.928.587-1.077 1.212-1.077 2.277 0 2.387 0 5.141-2.486 6.353-.631.331-.075 1.249.556.955 2.19-1.065 2.895-3.305 3.007-5.582.037-1.028-.297-2.204.519-3.048.409-.404 1.225-.588 1.745-.845 1.113-.514 2.153-1.065 2.895-2.057 1.41-1.873.631-3.819-1.039-5.178-1.745-1.395-4.009-1.799-6.162-1.359.223.184.483.368.706.515v-4.958c-.038-.625-1.151-.625-1.114.073z" fill="#161616"/><path fill-rule="evenodd" clip-rule="evenodd" d="M283.341 181.861a12.282 12.282 0 00.222 4.04c.149.698 1.225.404 1.077-.294a11.583 11.583 0 01-.186-3.746c.074-.698-1.039-.698-1.113 0z" fill="#161616"/><path fill-rule="evenodd" clip-rule="evenodd" d="M284.195 182.963c.556-.478 1.373-.808 2.115-.588.705.221 1.262 1.029.928 1.763-.482.992-2.116.992-3.081.992-.705 0-.705 1.101 0 1.101 1.745.037 4.566-.477 4.269-2.827-.112-.955-.891-1.8-1.819-2.094-1.151-.33-2.338.11-3.229.882-.52.44.26 1.212.817.771zm-16.703-9.512c-.742.588-1.967.294-2.079 1.543-.111.991.743 1.689 1.596 1.873 1.93.403 4.306-.074 6.31-.037 2.376.037 4.788.22 7.164.477.297.037.557-.294.557-.551 0-.624 0-.661-.335-1.212-.371-.587-1.336-.036-.965.551.075.221.112.441.186.661l.557-.551a74.663 74.663 0 00-8.574-.477c-.705 0-1.448 0-2.153.037-.52 0-1.596.294-2.041.073-.223-.33-.483-.661-.706-.991.186-.037.409-.074.594-.147.186-.147.52-.294.706-.441.556-.477-.26-1.249-.817-.808z" fill="#161616"/><path opacity=".09" fill-rule="evenodd" clip-rule="evenodd" d="M274.136 171.945c-.149-.514-3.303-.293-6.161.588-1.634.477-2.933 1.138-3.824 1.579-.296 4.04-.482 8.227-.593 12.634a185.808 185.808 0 000 9.144c1.039.771 3.563 2.461 7.2 2.755 2.45.183 4.417-.331 5.568-.735l-1.893-21.484c-2.97-.037-5.308-.294-5.419-1.029-.223-1.138 5.345-2.754 5.122-3.452z" fill="#4C4C4C"/><path opacity=".11" fill-rule="evenodd" clip-rule="evenodd" d="M264.3 176.426c1.559 4.884 3.192 9.842 4.825 14.8.817 2.497 1.67 4.958 2.487 7.419a12.242 12.242 0 01-4.528-1.029c-1.559-.661-2.673-1.542-3.378-2.167-.223-3.231-.334-6.83-.148-10.723.148-2.975.408-5.766.742-8.3z" fill="#4C4C4C"/><path fill-rule="evenodd" clip-rule="evenodd" d="M275.992 112.855c-.334 1.689-.743 4.186-1.188 7.234-1.373 10.026-1.336 17.812-1.299 23.872.037 4.444.222 10.209.779 17.004a85.43 85.43 0 008.351 2.46c6.347 1.543 10.059 1.689 20.6 3.085 6.496.881 4.974.808 10.69 1.542 8.425 1.102 13.733 1.8 20.451 1.947 3.081.073 7.386.037 12.657-.404.928-4.003 1.93-9.071 2.598-14.947.186-1.469.891-8.153.78-17.261-.075-5.839-.52-13.184-1.819-21.668-1.41-.33-3.378-.808-5.716-1.285-2.784-.588-12.508-2.534-25.796-3.342-14.067-.882-24.831-.037-28.394.257-5.197.404-9.502.991-12.694 1.506zM32.988 140.802c6.422 16.196 12.806 32.392 19.227 48.588 18.78-11.275 37.562-22.586 56.343-33.861-5.419-13.147-10.801-26.332-16.22-39.479a452.983 452.983 0 00-30.102 11.311 459.637 459.637 0 00-29.248 13.441zm18.892 49.249a250.864 250.864 0 0023.347 12.413c5.345 2.534 10.578 4.737 15.552 6.721 8.574-5.73 17.148-11.459 25.685-17.261 8.425-5.729 16.851-11.458 25.239-17.261-10.689-6.28-21.416-12.523-32.106-18.803-19.263 11.421-38.49 22.806-57.716 34.191z" fill="#fff"/><path fill-rule="evenodd" clip-rule="evenodd" d="M62.348 190.859c16.22-9.696 32.7-19.134 48.14-30.041.594-.404.037-1.359-.557-.955-15.44 10.907-31.92 20.345-48.14 30.041-.594.367-.037 1.322.557.955zm6.161 3.782c16.22-9.695 32.7-19.133 48.14-30.041.594-.404.038-1.359-.556-.955-15.441 10.908-31.92 20.346-48.14 30.042-.595.367-.038 1.322.556.954zm7.535 3.563c16.22-9.696 32.7-19.134 48.14-30.041.594-.404.037-1.359-.557-.955-15.44 10.907-31.92 20.345-48.14 30.041-.631.367-.074 1.322.557.955zm6.161 3.783c16.22-9.696 32.7-19.134 48.14-30.042.594-.404.038-1.358-.556-.955-15.441 10.908-31.92 20.346-48.14 30.042-.632.367-.075 1.322.556.955z" fill="#161616"/><path fill-rule="evenodd" clip-rule="evenodd" d="M67.395 187.407c4.083 2.57 8.203 5.104 12.286 7.675.594.367 1.15-.587.557-.955-4.083-2.57-8.203-5.104-12.286-7.675-.594-.367-1.15.587-.556.955zm6.385-3.673c3.823 2.681 7.646 5.325 11.469 8.006.594.404 1.15-.551.556-.955-3.823-2.681-7.646-5.325-11.469-8.006-.556-.404-1.113.551-.556.955zm6.124-3.709c3.675 2.644 7.312 5.362 10.838 8.226.557.441 1.336-.33.78-.771a242.143 242.143 0 00-11.061-8.373c-.594-.478-1.151.477-.557.918zm6.384-3.599c3.6 2.534 7.015 5.288 10.281 8.226.52.478 1.3-.294.78-.771a115.237 115.237 0 00-10.504-8.41c-.594-.404-1.15.551-.557.955zm5.864-3.158a95.583 95.583 0 019.391 8.74c.482.514 1.262-.257.779-.771-2.932-3.122-6.087-6.023-9.39-8.741-.52-.44-1.336.331-.78.772zm4.64-3.6a75.004 75.004 0 019.984 9.365c.483.551 1.262-.257.78-.771a75.039 75.039 0 00-9.984-9.365c-.52-.441-1.337.331-.78.771zm5.79-3.929c3.563 2.828 7.052 5.766 10.356 8.851.519.477 1.299-.294.779-.772-3.34-3.085-6.792-6.059-10.355-8.85-.557-.441-1.337.33-.78.771zm4.9-2.718c1.967 1.102 3.526 2.865 5.159 4.407 1.596 1.506 3.155 3.012 4.751 4.517.519.478 1.299-.293.779-.771-1.744-1.653-3.489-3.342-5.233-4.995-1.522-1.469-3.007-3.048-4.863-4.113-.668-.33-1.224.625-.593.955zm-45.877 27.911a118.272 118.272 0 0013.548 7.492c.63.294 1.225-.661.557-.955-4.677-2.203-9.168-4.737-13.548-7.492-.594-.367-1.15.588-.557.955zm48.809-29.821l.445.111c.297.073.631-.074.668-.368.075-.293-.074-.587-.371-.661a72.15 72.15 0 01-.445-.11c-.297-.073-.631.074-.668.367-.112.257.074.588.371.661z" fill="#161616"/><path fill-rule="evenodd" clip-rule="evenodd" d="M110.302 161.038c4.677 2.057 8.723 5.215 13.251 7.529.631.33 1.188-.625.557-.955-4.528-2.314-8.574-5.472-13.251-7.529-.631-.294-1.225.661-.557.955zM74.67 198.387a56.694 56.694 0 016.644 3.857c.594.404 1.15-.551.557-.955a59.716 59.716 0 00-6.644-3.856c-.63-.331-1.188.624-.557.954zm5.345-3.084a51.179 51.179 0 014.9 4.076c.52.477 1.299-.294.779-.771-1.596-1.543-3.303-2.938-5.122-4.26-.557-.441-1.114.514-.557.955zm5.345-3.342a37.303 37.303 0 015.122 4.517c.483.514 1.262-.257.78-.771a38.01 38.01 0 00-5.345-4.701c-.557-.404-1.114.551-.557.955zm5.605-3.526c1.559 1.469 3.043 3.011 4.49 4.554.483.514 1.263-.257.78-.771a86.781 86.781 0 00-4.49-4.554c-.52-.514-1.3.257-.78.771zm15.477-9.696c1.485 1.727 2.97 3.489 4.491 5.215.446.551 1.262-.257.78-.771-1.485-1.726-2.969-3.489-4.491-5.215-.483-.551-1.262.257-.78.771zm6.57-3.892c1.485 1.542 2.895 3.158 4.306 4.774.482.551 1.262-.257.779-.771-1.41-1.616-2.821-3.232-4.306-4.775-.482-.514-1.262.257-.779.772zm4.343-2.865c2.375 1.102 4.714 2.167 7.089 3.269.631.293 1.225-.661.557-.955-2.376-1.102-4.714-2.167-7.09-3.269-.631-.294-1.224.661-.556.955z" fill="#161616"/><path fill-rule="evenodd" clip-rule="evenodd" d="M123.442 168.273a90.491 90.491 0 006.347 3.599c.631.33 1.187-.624.556-.955a90.698 90.698 0 01-6.346-3.599c-.594-.404-1.151.551-.557.955z" fill="#161616"/><path fill-rule="evenodd" clip-rule="evenodd" d="M156.736 93.5c-.446 4.077-.817 8.264-1.04 12.634-.928 17.848.594 33.971 3.118 47.853 7.832-.037 14.142-.147 18.113-.257 27.244-.661 39.047-2.241 63.321-2.314 6.162 0 11.098.073 13.956.147.965-3.82 1.819-7.859 2.487-12.119 3.006-19.391 1.113-36.505-1.819-49.763-5.048-.955-12.508-2.093-21.639-2.57-5.976-.295-7.646-.074-31.66 1.027-17.074.772-21.64.919-29.582 2.204a133.58 133.58 0 00-15.255 3.158z" fill="#fff"/><path fill-rule="evenodd" clip-rule="evenodd" d="M303.087 166.73c.223 4.995.148 9.99-.26 14.948-.037.697 1.076.697 1.114 0 .408-4.995.482-9.953.259-14.948-.037-.734-1.15-.734-1.113 0zm6.532 1.065v13.883c0 .697 1.114.697 1.114 0v-13.883c0-.734-1.114-.734-1.114 0z" fill="#161616"/><path fill-rule="evenodd" clip-rule="evenodd" d="M302.975 181.163c-1.187-.073-5.753.735-4.825 2.828.409.955 2.042 1.029 2.858 1.175 1.893.294 3.823.368 5.716.368 1.819-.037 3.712-.037 5.531-.257.853-.111 2.598-.294 3.117-1.139 1.151-1.946-3.971-2.864-4.936-3.011-.705-.111-1.002.955-.297 1.065.817.147 1.596.293 2.413.587 1.076.368 2.115.588.779 1.212-1.485.661-3.897.404-5.493.441-1.856.037-3.749.037-5.605-.184-.705-.073-3.526-.036-2.153-1.359.668-.661 2.079-.661 2.933-.624.705.037.705-1.065-.038-1.102zm-28.542-19.391a144.924 144.924 0 0028.542 5.399c.706.074.706-1.028 0-1.102a141.899 141.899 0 01-28.245-5.325c-.669-.22-.965.845-.297 1.028zm35.298 6.134c12.397 2.166 25.016 2.974 37.525 1.726.705-.074.705-1.176 0-1.102-12.434 1.212-24.943.477-37.228-1.689-.706-.111-1.003.954-.297 1.065z" fill="#161616"/><path fill-rule="evenodd" clip-rule="evenodd" d="M274.804 160.891c-.891-15.939-1.707-32.061 1.856-47.779.148-.698-.928-.992-1.077-.294-3.563 15.792-2.746 32.024-1.893 48.073.038.698 1.151.698 1.114 0z" fill="#161616"/><path fill-rule="evenodd" clip-rule="evenodd" d="M276.177 113.479c11.877-2.497 24.46-2.167 36.56-1.947 11.915.221 23.903 1.286 35.335 4.811.668.221.965-.844.297-1.065-11.543-3.562-23.606-4.627-35.632-4.847-12.174-.221-24.868-.551-36.857 1.983-.705.184-.408 1.212.297 1.065z" fill="#161616"/><path fill-rule="evenodd" clip-rule="evenodd" d="M348.11 116.086a150.102 150.102 0 01-1.374 52.774c-.148.698.928.992 1.077.294 3.6-17.591 4.082-35.66 1.373-53.361-.111-.698-1.188-.404-1.076.293zM32.432 141.463c6.458 16.453 12.916 32.869 19.374 49.322.26.661 1.337.368 1.077-.293-6.458-16.453-12.917-32.869-19.375-49.322-.26-.661-1.336-.368-1.076.293z" fill="#161616"/><path fill-rule="evenodd" clip-rule="evenodd" d="M51.584 191.153c12.62 6.794 25.536 13.037 38.675 18.766.668.294 1.225-.661.557-.955a535.048 535.048 0 01-38.675-18.766c-.631-.331-1.188.587-.557.955z" fill="#161616"/><path fill-rule="evenodd" clip-rule="evenodd" d="M91.002 209.993c16.925-11.532 33.887-23.101 50.813-34.632.593-.404.037-1.359-.557-.955-16.925 11.532-33.888 23.1-50.813 34.632-.594.404-.037 1.359.557.955zm-58.088-68.64a517.864 517.864 0 0159.572-24.863c.668-.22.372-1.285-.297-1.065a525.195 525.195 0 00-59.832 24.973c-.668.331-.111 1.249.557.955zm19.635 49.028c18.744-11.348 37.525-22.696 56.269-34.044.594-.367.037-1.322-.557-.955-18.744 11.348-37.525 22.696-56.269 34.045-.594.367-.037 1.322.557.954z" fill="#161616"/><path fill-rule="evenodd" clip-rule="evenodd" d="M91.744 116.343c5.456 13.038 10.875 26.075 16.331 39.076.26.661 1.337.367 1.077-.294-5.456-13.037-10.875-26.075-16.332-39.075-.26-.661-1.336-.368-1.076.293z" fill="#161616"/><path fill-rule="evenodd" clip-rule="evenodd" d="M108.855 156.08c10.912 6.17 21.825 12.376 32.7 18.546.631.367 1.188-.587.557-.955-10.913-6.169-21.825-12.376-32.7-18.546-.631-.33-1.188.624-.557.955zm46.841-62.323c-1.522 20.016.409 40.068 2.376 59.973.074.697 1.187.697 1.113 0-1.967-19.942-3.897-39.957-2.375-59.972.074-.698-1.04-.698-1.114 0z" fill="#161616"/><path fill-rule="evenodd" clip-rule="evenodd" d="M156.587 94.235c11.803-4.26 24.534-4.554 36.931-5.288 12.88-.772 25.796-1.763 38.676-1.396 7.572.22 15.106.918 22.567 2.424.705.147 1.002-.918.297-1.065-12.843-2.608-25.945-2.828-38.973-2.314-13.139.514-26.39 1.139-39.455 2.387-6.904.661-13.77 1.8-20.34 4.15-.668.294-.371 1.359.297 1.102z" fill="#161616"/><path fill-rule="evenodd" clip-rule="evenodd" d="M254.761 89.497a157.082 157.082 0 01-.817 61.588c.186-.146.371-.257.52-.404-24.794.808-49.551 1.58-74.345 2.388-7.015.22-14.067.44-21.082.661-.705.036-.705 1.138 0 1.101 24.794-.808 49.551-1.579 74.345-2.387 7.015-.22 14.067-.44 21.082-.661.223 0 .482-.147.52-.404 4.342-20.456 4.639-41.609.816-62.175-.111-.698-1.188-.404-1.039.293z" fill="#161616"/><path fill-rule="evenodd" clip-rule="evenodd" d="M303.718 166.583c0 2.057-.037 4.15-.074 6.244-.075 2.938-.149 5.876-.26 8.74a5.082 5.082 0 00-2.673.331c-.111.037-2.189.918-2.115 1.689.185 1.322 6.829 1.506 10.467 1.359 2.078-.073 5.901-.22 6.013-1.028.074-.625-1.856-1.433-4.603-2.241l-.334-14.579c-2.153-.184-4.305-.368-6.421-.515z" fill="#000"/><path fill-rule="evenodd" clip-rule="evenodd" d="M279.443 117.151a216.851 216.851 0 00-1.299 36.395c.037.698 1.151.698 1.114 0a224.857 224.857 0 011.299-36.395c.074-.697-1.039-.697-1.114 0z" fill="#85BBA6"/><path fill-rule="evenodd" clip-rule="evenodd" d="M280.334 117.592c5.122-1.873 10.541-2.35 15.96-2.424 5.345-.037 10.69.147 15.998.478 11.061.697 22.047 2.203 32.885 4.407.705.147 1.002-.918.297-1.065-10.949-2.241-22.01-3.746-33.182-4.444-5.531-.367-11.135-.551-16.666-.478-5.27.074-10.578.625-15.552 2.461-.705.22-.408 1.285.26 1.065z" fill="#85BBA6"/><path fill-rule="evenodd" clip-rule="evenodd" d="M345.103 119.612c.557 14.323-.779 28.646-2.227 42.895-.074.698 1.039.698 1.113 0 1.448-14.249 2.747-28.572 2.227-42.895-.037-.698-1.15-.698-1.113 0z" fill="#85BBA6"/><path fill-rule="evenodd" clip-rule="evenodd" d="M278.33 154.354c4.38 2.571 9.947 3.379 14.847 4.444a225.407 225.407 0 0017.222 3.085 223.45 223.45 0 0016.48 1.689c5.419.367 11.172.955 16.517-.11.705-.147.408-1.212-.297-1.065-5.345 1.102-11.172.404-16.592.073-5.53-.367-11.06-.955-16.516-1.726-5.308-.771-10.579-1.689-15.812-2.828-5.011-1.101-10.801-1.909-15.292-4.48-.631-.404-1.188.551-.557.918zm1.336-31.804c22.01-1.322 44.021 1.102 65.771 4.113.705.11 1.002-.955.297-1.065-21.862-3.048-43.946-5.472-66.068-4.15-.705.037-.705 1.139 0 1.102zm7.535-3.636c-.26-.073-.26-.404 0-.477.334-.147.594.22.557.514-.038.477-.594.147-.52-.11l.111-.11c-.037.036-.074-.037-.074-.037.037-.074.26-.257.26 0 0-.698-1.114-.698-1.114 0 0 .551.446.955 1.003.955a.925.925 0 00.927-1.102c-.074-.588-.631-.992-1.224-.918a1.277 1.277 0 00-1.04 1.322c.112 1.359 2.116 1.836 2.636.477.445-1.101-.52-2.387-1.745-2.13-.594.11-1.113.625-1.113 1.249-.037.624.408 1.212 1.002 1.395.705.221 1.002-.844.334-1.028zm5.939-.698c-.186-.036 0-.183.111-.183.223.037.186.294 0 .294h-.037s-.037-.037-.037-.111v-.11s0 .037-.037.037c-.075 0 .074-.037.037 0 .26-.11-.037.073.037 0v-.073s.185.036 0 0c-.297-.111-.594.11-.668.367a.555.555 0 00.371.661c.482.183 1.039-.11 1.262-.551.26-.441.111-.992-.297-1.285-.779-.588-1.93 0-1.856.991.111 1.065 1.373 1.469 2.116.698.742-.808.111-2.057-.965-2.093-.594 0-1.151.404-1.262.991-.149.588.26 1.212.853 1.359.78.257 1.077-.808.372-.992zm11.098 14.47a411.367 411.367 0 00-14.847 6.464c-.483.22-.26.881.148.991a75.793 75.793 0 0112.063 5.472c.631.368 1.188-.587.557-.954-3.934-2.241-8.054-4.077-12.323-5.583.037.331.074.661.149.992a424.844 424.844 0 0114.587-6.354c.631-.257.334-1.322-.334-1.028zm13.992-1.652c-4.194 5.251-8.351 10.466-12.545 15.718-.445.551.334 1.322.779.771 4.195-5.252 8.352-10.467 12.546-15.718.445-.514-.334-1.322-.78-.771zm5.605 6.096a88.375 88.375 0 0010.875 5.839v-.955a1899.573 1899.573 0 01-12.025 6.684c-.631.331-.075 1.286.556.955 4.009-2.24 8.018-4.48 12.026-6.684.334-.183.371-.771 0-.955a88.168 88.168 0 01-10.875-5.839c-.594-.404-1.151.551-.557.955z" fill="#85BBA6"/><path fill-rule="evenodd" clip-rule="evenodd" d="M324.54 160.634c4.603.11 9.168.22 13.771.294.705 0 .705-1.102 0-1.102-4.603-.11-9.168-.22-13.771-.294-.705 0-.705 1.102 0 1.102zM36.069 142.455c5.716 13.478 11.06 27.103 16.109 40.838.26.661 1.336.368 1.076-.293-5.048-13.736-10.393-27.361-16.109-40.839-.297-.661-1.373-.367-1.076.294z" fill="#85BBA6"/><path fill-rule="evenodd" clip-rule="evenodd" d="M36.737 142.161C54.405 135 72.072 127.802 89.63 120.383c.668-.294.074-1.212-.557-.955-17.482 7.382-35.039 14.544-52.632 21.668-.668.294-.371 1.359.297 1.065z" fill="#85BBA6"/><path fill-rule="evenodd" clip-rule="evenodd" d="M89.517 120.089a588.775 588.775 0 0114.513 33.347c.26.661 1.336.367 1.076-.294-4.528-11.348-9.39-22.586-14.624-33.64-.297-.588-1.262-.037-.965.587z" fill="#85BBA6"/><path fill-rule="evenodd" clip-rule="evenodd" d="M53.514 184.065a933.13 933.13 0 0025.759-14.801 869.28 869.28 0 0012.545-7.602c4.083-2.534 8.166-5.105 12.583-7.088.668-.294.074-1.248-.557-.955-4.417 1.984-8.5 4.554-12.582 7.088a869.817 869.817 0 01-12.546 7.602c-8.5 5.069-17.11 9.99-25.759 14.801-.63.367-.074 1.322.557.955z" fill="#85BBA6"/><path fill-rule="evenodd" clip-rule="evenodd" d="M57.82 150.681c-2.45-1.469-4.9 1.065-6.31 2.865-1.708 2.167-2.153 4.774-1.114 7.345.928 2.24 3.007 4.481 5.642 4.334 3.118-.184 4.974-2.902 6.384-5.326.371-.624-.594-1.175-.965-.55-1.002 1.726-2.116 3.635-4.083 4.407-2.338.954-4.417-.441-5.568-2.461-.89-1.542-1.187-3.452-.593-5.178.593-1.653 3.786-5.803 6.013-4.481.63.368 1.224-.587.593-.955zm13.213-5.986c0-1.689-1.745-1.212-2.672-.514-1.485 1.102-3.267 3.599-3.526 5.435-.297 2.314 2.264 1.873 3.86 1.727 2.004-.184 4.825.55 3.266 3.195-1.002 1.689-3.044 2.46-4.9 2.534-.705.036-.705 1.138 0 1.101 2.821-.146 8.055-2.791 6.162-6.39-.817-1.506-2.635-1.726-4.194-1.616-.409.037-1.56.331-1.968.184-1.484-.551-.668-1.726-.296-2.424.26-.477.52-.991.853-1.432.112-.147 2.264-2.277 2.264-1.836.037.771 1.151.771 1.151.036zm14.179-8.3c-1.82-.697-3.452.845-4.529 2.13-.89 1.029-2.487 3.122-1.93 4.628.594 1.616 3.118.881 4.306.734.63-.073 1.336-.183 1.967-.073 1.67.22 2.264 1.91 1.485 3.268-.928 1.616-2.747 2.13-4.454 2.351-.706.11-.409 1.175.296 1.065 2.747-.404 7.572-3.159 5.197-6.574-1.15-1.653-3.452-1.249-5.122-1.065-.371.037-1.745.404-1.967.147-.557-.551-.223-1.836.11-2.424.743-1.249 2.562-3.856 4.38-3.158.632.293.929-.772.26-1.029z" fill="#214B41"/><path fill-rule="evenodd" clip-rule="evenodd" d="M86.102 160.891c2.784-1.763 5.605-3.562 8.389-5.325.594-.367.037-1.322-.557-.955-2.784 1.763-5.605 3.562-8.388 5.325-.594.404-.038 1.359.556.955zm10.764-6.537c.705-.331 1.41-.661 2.153-.992.631-.293.074-1.248-.557-.954-.705.33-1.41.661-2.153.991-.668.294-.074 1.249.557.955zM79.755 126.81c.038-.073.038-.147.075-.257 0-.037.037-.037.037-.073.074-.037.148-.111.26-.147-.112.036.222.036.26.036.11.037.11.111.148.184.037.074 0-.073 0 0-.037.11 0-.073 0 0 0 .037 0 .037 0 0l-.037.037c-.037 0-.075.037-.075.037-.074.036-.037-.037 0 0h-.037c.038 0 .038 0 0 0 0-.037 0 .036 0 0 0 0-.037 0-.037-.037-.037-.037 0-.037 0 .037 0-.037 0-.037 0 0 0 0-.037-.111 0-.111 0 0-.037.074-.037.111.037-.111-.037.036 0-.037l.037-.037c-.037.037.075 0 .075 0 .037 0 .074 0 .074.037.037 0 .037.037 0 0 0 0 .037.11.037.037v.146c-.037.111-.149.147-.223.147h-.037c.074.037 0 0-.037 0 .074.037-.037-.036-.037-.036-.037-.074-.037-.111-.037-.184 0-.11 0-.147.111-.22l.037-.037c.037 0 .037-.037.074-.037h.075c-.075-.037.037.037.074.037.074.037.148.184.148.257a.568.568 0 00-.556-.551.568.568 0 00-.557.551c0 1.028 1.67 1.028 1.707.037.037-.992-1.559-1.176-1.781-.221-.112.478.222.992.705 1.139.445.11.928-.11 1.113-.514a1.052 1.052 0 00-.185-1.249c-.334-.331-.891-.441-1.3-.184-.445.257-.593.882-.333 1.322.148.221.408.404.668.404.334 0 .668-.293.668-.661-.037-.293-.223-.55-.557-.55-.223.036-.52.293-.52.587zm5.048-2.203c.297-.074.409.404.112.44-.038 0-.149-.036-.112-.036.037.036-.074-.074 0 0-.074-.074-.037-.037 0 .036 0-.036 0-.036-.037-.073 0 .037 0 .037 0 0s0-.037 0 0v-.037c0-.037.037-.11.074-.147.037-.036.112-.036.149-.073-.149 0 .111 0 0 0 .037 0 .037 0 .074.037-.037-.037-.037-.037 0 0 .037.036.037.036 0 0l.037.036c-.037-.11.037.11 0 0 0 .037 0 .184.037.11-.111.111-.26.257-.37.368a.69.69 0 01.259-.074c-.074 0 .074 0 0 0-.037 0-.037 0 0 0s.037 0 0 0c-.037-.037-.074-.037-.111-.11 0-.037-.038-.147-.038-.11 0 .073.038-.11 0-.037a.356.356 0 01.335-.257.568.568 0 00-.557.551c0 .294.26.551.556.551.854 0 1.04-1.175.335-1.579-.335-.184-.743-.147-1.114 0-.445.183-.52.697-.297 1.101.371.661 1.448.735 1.707-.073.223-.661-.408-1.396-1.113-1.285-.483.073-.817.624-.705 1.065.111.477.63.771 1.076.624.297-.074.483-.404.371-.661a.562.562 0 00-.668-.367zM159 95.704c.297 18.399 1.262 36.762 2.969 55.088.074.697 1.188.697 1.113 0a738.11 738.11 0 01-2.969-55.088c0-.735-1.113-.735-1.113 0z" fill="#85BBA6"/><path fill-rule="evenodd" clip-rule="evenodd" d="M160.299 96.291c7.609-1.322 15.329-1.579 23.012-1.91 7.461-.293 14.958-.587 22.419-.844 15.069-.55 30.138-.992 45.208-1.396.705 0 .705-1.101 0-1.101-15.329.404-30.622.844-45.951 1.395-7.609.257-15.18.551-22.789.882-7.424.294-14.847.624-22.196 1.91-.668.11-.371 1.175.297 1.064z" fill="#85BBA6"/><path fill-rule="evenodd" clip-rule="evenodd" d="M250.752 91.885c2.079 3.93 1.967 8.483 2.079 12.78.111 4.48.148 8.961.111 13.441a432.377 432.377 0 01-1.039 26.846c-.037.698 1.076.698 1.113 0 .631-9.401 1.003-18.84 1.04-28.278.037-4.591-.037-9.181-.149-13.809-.111-3.966-.26-7.932-2.19-11.531-.334-.625-1.299-.074-.965.55z" fill="#85BBA6"/><path fill-rule="evenodd" clip-rule="evenodd" d="M162.785 150.939c29.248-5.362 59.313-4.665 88.895-5.142.705 0 .705-1.102 0-1.102-29.73.478-59.869-.183-89.191 5.178-.706.147-.409 1.212.296 1.066zm7.387-52.113a36.349 36.349 0 00-4.232 3.305c-.259.257-.185.698.112.881 1.336.808 3.303.625 4.342 1.836.446.551 1.225-.22.78-.771-1.151-1.395-3.118-1.138-4.565-2.02l.111.882a36.388 36.388 0 014.009-3.122c.593-.44.037-1.395-.557-.991zm6.124-.551a43.113 43.113 0 00-3.86 7.014c-.297.661.668 1.212.965.551 1.076-2.461 2.338-4.811 3.86-7.014.371-.588-.594-1.139-.965-.551zm2.19 4.296a24.259 24.259 0 015.159-.11c.705.074.705-1.028 0-1.101a24.142 24.142 0 00-5.159.11c-.705.073-.742 1.175 0 1.101zm6.421-3.966c1.336 1.836 3.786 1.983 5.308 3.563l.111-.882a22.904 22.904 0 00-4.454 3.232c-.519.477.26 1.249.78.771a22.842 22.842 0 014.231-3.048.551.551 0 00.111-.881c-1.447-1.47-3.934-1.653-5.159-3.342-.408-.515-1.373.036-.928.587zm-22.381 13.515l4.565-.33c.705-.037.705-1.139 0-1.102l-4.565.33c-.705.074-.705 1.175 0 1.102zm8.128-.588c10.282-.587 20.563-1.211 30.844-1.799.706-.037.706-1.139 0-1.102-10.281.588-20.562 1.212-30.844 1.8-.705.036-.742 1.138 0 1.101zm-7.534 4.995h2.523c.706 0 .706-1.102 0-1.102h-2.523c-.743 0-.743 1.102 0 1.102zm5.604-.441a8.98 8.98 0 002.97-.293c.705-.184.408-1.249-.297-1.065-.891.22-1.745.293-2.673.22-.705 0-.705 1.102 0 1.138zm9.131-.771a218.036 218.036 0 0129.396-.771c.706.037.706-1.065 0-1.102a218.36 218.36 0 00-29.396.771c-.705.037-.705 1.139 0 1.102zm-13.362 6.721c-.631.771-1.299 1.542-2.042 2.24-.296.294-.148.808.26.918 1.151.331 2.339.478 3.526.514.706 0 .706-1.101 0-1.101-1.113 0-2.152-.147-3.229-.478.074.294.149.624.26.918a19.55 19.55 0 002.041-2.24c.409-.551-.408-1.359-.816-.771zm3.786 2.167a76.528 76.528 0 0115.329-1.323c.705 0 .705-1.101 0-1.101-5.271-.11-10.467.367-15.626 1.359-.668.146-.371 1.175.297 1.065zm16.851-2.755c1.819.918 4.008.294 5.753 1.286a9.17 9.17 0 01.148-.992 10.438 10.438 0 00-2.858 1.432c-.594.404-.037 1.359.557.955.817-.551 1.633-.991 2.598-1.322.446-.147.557-.771.149-.991-1.782-1.066-3.935-.368-5.753-1.286-.668-.367-1.225.588-.594.918zm49.142-25.781c-.89.147-1.447.735-1.633 1.616-.111.588.075 1.175.186 1.726.371 1.616.148 2.424-1.336 3.305-.446.294-.297 1.029.297 1.029 1.558-.037 1.002 7.088 4.305 4.701.594-.404.037-1.359-.557-.955-1.521 1.065-1.41-2.424-1.484-2.791-.075-.404-.186-.772-.371-1.102-.446-.698-1.04-.992-1.893-.955.111.331.185.698.297 1.028.853-.514 1.744-1.101 2.078-2.093.297-.881-.965-4.187.445-4.444.669-.11.372-1.175-.334-1.065zm7.238.441c1.262-.184 1.745.55 1.522 2.277-.111.22-.223.404-.334.624-.074.367-.223.624-.223 1.028 0 .772.52.919.78 1.506.222.551-.037.478-.112 1.175-.222 1.469 1.819 2.681-.111 4.003-.594.404-.037 1.359.557.955.816-.551 1.41-1.359 1.41-2.387 0-.404-.185-.771-.297-1.138-.223-.918-.074-1.58.186-2.461a.61.61 0 00-.149-.551 4.94 4.94 0 01-.519-.404c-.891-.881-.297-1.322.111-2.314.223-.587.408-1.065.223-1.689-.334-1.322-1.745-1.763-2.97-1.726-.779 0-.779 1.102-.074 1.102zm-40.606 5.876c5.865-.478 11.692-.918 17.557-1.396.705-.073.705-1.175 0-1.101-5.865.477-11.692.918-17.557 1.395-.705.037-.705 1.139 0 1.102zm25.24-1.763a13.07 13.07 0 003.971-.073c.705-.111.409-1.176-.297-1.065a13.678 13.678 0 01-3.674.036c-.705-.11-.705.992 0 1.102zm-59.498 31.62c9.836-.624 19.672-1.285 29.507-1.909.706-.037.706-1.139 0-1.102-9.835.624-19.671 1.285-29.507 1.91-.706.036-.706 1.138 0 1.101zm35.892-2.68c3.748-.368 7.46-.698 11.209-1.029.705-.073.705-1.175 0-1.102-3.749.294-7.498.662-11.209 1.029-.706.073-.706 1.175 0 1.102zm19.634-1.433a402.668 402.668 0 0121.973-1.616c.706-.036.706-1.138 0-1.101-7.349.367-14.661.881-21.973 1.616-.705.073-.705 1.175 0 1.101zm-51.147 7.749c-1.373.955-2.783 1.947-4.157 2.902-.371.257-.371.881.149.991 1.447.367 2.895.661 4.38.882.705.11 1.002-.955.297-1.065a44.204 44.204 0 01-4.38-.882c.037.331.074.661.148.992 1.374-.955 2.784-1.947 4.157-2.902.557-.404 0-1.358-.594-.918zm5.679-.624c-1.596 1.836-3.08 3.746-4.417 5.802-.408.588.557 1.139.965.551a47.17 47.17 0 014.232-5.582c.482-.514-.297-1.322-.78-.771zm3.304 1.579c.482.367 1.002.551 1.521.735.335.11.669.183 1.003.293.185.074.408.184.556.294-.037-.257-.148-.33-.334-.22-.482-.037-1.41.551-1.856.771-.705.331-1.336.771-1.967 1.212-.556.404 0 1.359.557.955a12.046 12.046 0 012.672-1.543c.594-.257 1.856-.367 2.042-1.138.148-.661-.594-1.028-1.077-1.249-.853-.367-1.818-.477-2.598-1.028-.519-.441-1.076.514-.519.918zm12.36 1.543c4.565-.368 9.13-.845 13.696-.588.705.037.705-1.065 0-1.102-4.603-.257-9.131.221-13.696.588-.743.037-.743 1.138 0 1.102zm23.606-1.653c8.574-.992 17.185-1.359 25.833-1.175.705 0 .705-1.102 0-1.102-8.611-.184-17.259.22-25.833 1.175-.705.074-.705 1.175 0 1.102z" fill="#85BBA6"/><path opacity=".16" fill-rule="evenodd" clip-rule="evenodd" d="M279.666 116.711a280.655 280.655 0 00-.519 5.545c10.726-.33 22.492-.22 35.112.588 11.172.734 21.602 1.909 31.141 3.378.223-2.313.408-4.627.631-6.941a299.308 299.308 0 00-16.666-2.754 286.14 286.14 0 00-18.669-1.946c-9.02-.625-13.622-.919-19.746-.184a80.31 80.31 0 00-11.284 2.314z" fill="#85BBA6"/><path opacity=".12" fill-rule="evenodd" clip-rule="evenodd" d="M54.813 130.666c-1.225 3.306-2.71 8.117-3.415 14.029-.854 7.309-3.043 25.965 6.83 31.657 6.755 3.893 17.519.808 26.612-6.537 1.56 1.249 3.155 2.461 4.714 3.71l-27.726 16.636c6.533 3.856 13.065 7.676 19.56 11.532 7.053-4.15 14.068-8.263 21.12-12.413 3.563 1.726 7.126 3.488 10.652 5.215a8036.304 8036.304 0 00-22.121 15.461c-12.88-6.354-25.722-12.707-38.602-19.06a28377.485 28377.485 0 01-19.56-50.387c7.35-3.232 14.661-6.537 21.936-9.843z" fill="#4C4C4C"/><path opacity=".08" fill-rule="evenodd" clip-rule="evenodd" d="M324.392 111.753a40.977 40.977 0 012.635 8.851c.26 1.542 2.301 13.772-3.155 24.532-5.827 11.532-19.004 18.95-33.85 19.795a216.175 216.175 0 0039.418 4.737c6.235.184 12.174.074 17.742-.257a125.018 125.018 0 003.414-22.439 128.141 128.141 0 00-2.004-31.4c-8.092-1.212-16.146-2.534-24.2-3.819z" fill="#4C4C4C"/><path opacity=".09" fill-rule="evenodd" clip-rule="evenodd" d="M232.342 87.22c1.299 2.388 2.933 5.987 3.601 10.577 1.67 11.091-3.341 19.942-6.793 25.891-10.392 17.812-27.726 26.369-35.446 29.638 16.108-.111 32.663-.588 49.588-1.58 3.786-.22 7.534-.44 11.283-.697 1.633-7.125 2.97-15.535 3.489-25.047a146.983 146.983 0 00-2.746-36.762 4444.372 4444.372 0 00-22.976-2.02z" fill="#4C4C4C"/><path fill-rule="evenodd" clip-rule="evenodd" d="M221.95 320.939c.371 2.497.705 5.105 1.002 7.823.334 3.121.519 6.133.668 8.997a5.357 5.357 0 001.67 1.873c1.336.918 2.784.918 4.343.882 4.528-.111 6.792-.147 7.794-.331 3.526-.698 6.867-1.322 7.572-3.525.483-1.469-.482-3.085-.557-3.196-.556-.918-1.299-1.322-2.561-1.983-.853-.477-2.301-1.212-4.342-1.432a11.128 11.128 0 00-4.12.331c-.483-3.893-.965-7.786-1.448-11.642l-10.021 2.203z" fill="#000"/><path fill-rule="evenodd" clip-rule="evenodd" d="M215.231 248.26c-3.006 3.232-2.078 6.684-3.303 27.507-.483 8.374-.668 7.97-.817 13.001-.408 11.495.223 19.428.594 23.284.26 2.901.594 5.325.817 7.014 2.189 1.102 5.938 2.571 10.541 2.094 2.709-.257 4.751-1.139 6.272-1.763 3.341-1.396 5.791-3.232 7.35-4.554l-1.893-69.521c-13.103-2.46-17.816 1.065-19.561 2.938z" fill="#fff"/><path fill-rule="evenodd" clip-rule="evenodd" d="M212.671 251.308a413.17 413.17 0 00-.78 67.097c.037.698 1.151.698 1.114 0a413.217 413.217 0 01.779-67.097c.074-.697-1.039-.697-1.113 0z" fill="#161616"/><path fill-rule="evenodd" clip-rule="evenodd" d="M212.448 319.47c8.24 4.224 17.704 1.8 24.311-4.186.52-.478-.26-1.249-.779-.772-6.236 5.656-15.181 8.006-22.975 4.04-.631-.367-1.188.588-.557.918z" fill="#161616"/><path fill-rule="evenodd" clip-rule="evenodd" d="M233.938 246.277l1.782 68.088c.037.698 1.151.698 1.113 0l-1.781-68.088c0-.698-1.114-.698-1.114 0zm-12.471 75.14a90.985 90.985 0 011.67 13.441c.037.698 1.151.698 1.114 0a89.67 89.67 0 00-1.708-13.735c-.148-.698-1.224-.404-1.076.294zm9.947-2.755c.223 4.811.669 9.586 1.337 14.36.111.698 1.187.404 1.076-.294a137.697 137.697 0 01-1.299-14.066c-.037-.697-1.151-.697-1.114 0z" fill="#161616"/><path fill-rule="evenodd" clip-rule="evenodd" d="M233.307 330.598c4.009-.514 7.943.661 10.95 3.342.519.477 1.336-.294.779-.771-3.229-2.865-7.423-4.224-11.729-3.673-.705.074-.705 1.175 0 1.102z" fill="#161616"/><path fill-rule="evenodd" clip-rule="evenodd" d="M223.137 334.454c-.185 2.314-.074 5.105 2.413 6.17.965.404 2.19.441 3.229.514 1.782.147 3.563.22 5.345.147 4.268-.22 12.545-1.91 11.321-7.822-.149-.698-1.225-.404-1.077.293 1.077 5.215-7.386 6.354-10.912 6.464-1.893.073-3.786-.037-5.679-.257-3.341-.404-3.749-2.571-3.526-5.472.037-.735-1.077-.735-1.114-.037z" fill="#161616"/><path opacity=".11" fill-rule="evenodd" clip-rule="evenodd" d="M213.413 251.088c3.637-1.285 7.275-2.571 10.912-3.819a397.488 397.488 0 00-.148 38.928c.519 11.899 1.559 23.064 2.858 33.383a14.63 14.63 0 01-2.45.845c-5.122 1.322-9.687-.367-11.914-1.432a358.207 358.207 0 01-1.151-40.361c.297-9.732.965-18.914 1.893-27.544z" fill="#4C4C4C"/><path opacity=".1" fill-rule="evenodd" clip-rule="evenodd" d="M213.116 251.823c.148 6.426.557 14.763 1.447 24.422.706 7.675 1.485 13.404 1.708 15.204 1.076 7.749 2.709 17.812 5.456 29.564-3.118-.698-6.236-1.433-9.316-2.13-.557-11.789-.817-24.276-.557-37.387a527.764 527.764 0 011.262-29.673z" fill="#4C4C4C"/><path fill-rule="evenodd" clip-rule="evenodd" d="M205.21 278.485c.223 1.138.52 2.791.891 4.848 2.19 13.074 2.153 22.476 2.375 30.408.186 6.758.631 16.416 1.893 28.425-.779.331-1.967.882-3.377 1.616-3.489 1.8-8.166 4.224-12.546 8.704a36.942 36.942 0 00-4.899 6.207c5.901.551 12.879.808 20.711.257a126.907 126.907 0 0024.571-4.224c-2.004-1.689-4.231-3.378-6.644-5.104a102.954 102.954 0 00-13.028-7.713 449.133 449.133 0 01-2.004-26.919 465.114 465.114 0 010-40.728c-2.672 1.432-5.308 2.827-7.943 4.223z" fill="#000"/><path fill-rule="evenodd" clip-rule="evenodd" d="M177.744 260.637c0-1.69 1.967-3.122 5.901-5.95 1.856-1.359 6.978-4.774 15.552-6.721 7.535-1.689 13.325-1.211 20.34-.624 9.985.845 14.587 2.828 15.812 3.342a37.27 37.27 0 018.166 4.958c-.631 2.24-1.893 5.399-4.529 8.3-1.818 2.057-6.792 6.757-20.562 7.822-19.115 1.543-40.717-4.994-40.68-11.127z" fill="#fff"/><path fill-rule="evenodd" clip-rule="evenodd" d="M178.857 258.507a19.178 19.178 0 00-1.262 3.488c-1.262 4.738-.557 8.888.112 11.422 2.004.918 4.862 2.057 8.388 3.085 10.838 3.195 19.672 2.754 26.835 2.35 9.428-.514 15.515-.955 22.567-4.59a39.338 39.338 0 008.648-6.097c-.111-4.003-.259-8.043-.371-12.046a57.555 57.555 0 01-10.541 5.472c-23.012 9.108-45.802.662-54.376-3.084z" fill="#000"/><path fill-rule="evenodd" clip-rule="evenodd" d="M177.113 261.004c-.78 4.15-.743 8.336.037 12.486.148.698 1.188.404 1.076-.293-.742-3.967-.779-7.933-.037-11.899.149-.698-.928-.992-1.076-.294z" fill="#161616"/><path fill-rule="evenodd" clip-rule="evenodd" d="M177.484 273.49c5.011 3.195 11.061 4.003 16.851 4.848 6.236.882 12.508 1.396 18.818.882 10.801-.882 24.126-1.91 31.512-10.834.446-.551-.334-1.322-.779-.772-3.489 4.224-8.5 6.648-13.771 8.006-5.716 1.469-11.766 2.131-17.667 2.535-6.199.44-12.397-.111-18.521-.992-5.457-.808-11.172-1.579-15.886-4.627-.594-.368-1.151.587-.557.954z" fill="#161616"/><path fill-rule="evenodd" clip-rule="evenodd" d="M243.106 256.303c.705 3.819.928 7.639.631 11.495-.037.698 1.077.698 1.114 0 .297-3.966.037-7.896-.668-11.789-.112-.698-1.188-.404-1.077.294z" fill="#161616"/><path fill-rule="evenodd" clip-rule="evenodd" d="M178.152 261.114c5.901-10.063 19.115-13.001 30.027-13.625 6.459-.367 12.954.147 19.264 1.616 3.006.698 6.013 1.542 8.908 2.681 2.747 1.065 5.419 2.497 6.792 5.215.334.624 1.299.073.965-.551-2.635-5.142-9.873-6.794-15.032-8.08a70.024 70.024 0 00-20.86-1.946c-11.283.661-24.831 3.746-30.955 14.176-.445.551.52 1.102.891.514zm26.947 17.775a869.236 869.236 0 014.714 62.874c.037.697 1.15.697 1.113 0a828.11 828.11 0 00-4.714-62.874c-.074-.698-1.188-.698-1.113 0zm7.052 0c.074 21.117.779 42.197 2.153 63.278.037.697 1.15.697 1.113 0a1029.334 1029.334 0 01-2.153-63.278c-.037-.698-1.15-.698-1.113 0z" fill="#161616"/><path fill-rule="evenodd" clip-rule="evenodd" d="M209.738 341.432c-8.314 3.783-15.44 9.622-20.859 16.93-.186.257 0 .772.334.808 7.683 1.249 15.44.625 23.123-.22 7.498-.808 15.07-1.616 22.308-3.746.371-.11.594-.661.259-.918a94.59 94.59 0 00-19.634-12.56c-.631-.294-1.225.661-.557.955a92.316 92.316 0 0119.412 12.376c.074-.294.148-.624.26-.918-7.164 2.13-14.624 2.901-22.01 3.709-7.572.845-15.255 1.469-22.827.257.111.257.223.551.334.808 5.27-7.161 12.323-12.817 20.451-16.526.594-.294.037-1.249-.594-.955z" fill="#161616"/><path fill-rule="evenodd" clip-rule="evenodd" d="M171.694 244.147c.853 3.342 1.744 6.684 2.598 10.026a74.546 74.546 0 00-11.469-2.681c-2.079-.294-10.876-1.616-11.469.22-.223.698.816 1.763.927 1.873.854.845 1.893.918 2.821 1.139 1.893.404 2.524 1.102 4.491 2.056 2.97 1.469 9.391 3.783 16.592 5.068 2.449.441 5.641.882 9.502 1.029-1.522-6.574-3.081-13.148-4.603-19.722-3.118.294-6.273.625-9.39.992z" fill="#000"/><path fill-rule="evenodd" clip-rule="evenodd" d="M170.246 152.15c-1.67.662-2.969 1.984-5.048 5.987-3.34 6.39-4.38 10.944-4.38 10.944-3.117 13.698-4.639 20.566-5.196 25.891-1.707 16.894 1.114 17.628 1.002 35.366 0 1.322-.037 4.187 1.671 6.978 2.709 4.37 7.942 5.619 9.39 5.986 4.268 1.029 8.314.294 11.766-.33a36.367 36.367 0 002.338-.514c2.673 2.093 5.123 3.525 6.867 4.48 3.378 1.8 6.31 3.379 10.393 3.82 2.524.293 4.973.073 6.05 0 1.856-.147 3.377-.441 4.528-.662 1.744.588 4.417 1.249 7.72 1.323 2.079.036 8.908.073 14.921-4.334 5.382-3.93 7.238-9.218 8.574-13.111 1.262-3.746 6.087-17.958-1.188-25.561-6.309-6.61-18.298-4.7-27.874-3.158a62.073 62.073 0 00-11.061 2.828 1062.83 1062.83 0 01-9.91-26.406c-2.116-5.839-5.197-11.348-7.052-17.26-1.671-5.289-2.561-9.512-6.384-11.642-.26-.147-3.749-1.983-7.127-.625z" fill="#fff"/><path fill-rule="evenodd" clip-rule="evenodd" d="M208.885 250.978c9.835 2.24 21.119.771 27.874-7.382 3.378-4.076 4.454-9.144 5.382-14.213.928-5.251 1.448-10.613-.26-15.755-.222-.661-1.299-.367-1.076.294 1.67 4.958 1.188 10.136.26 15.168-.854 4.847-1.856 9.805-5.085 13.735-6.459 7.859-17.334 9.218-26.799 7.088-.705-.184-1.002.881-.296 1.065zm-22.159-79.584c-.52-4.921-1.819-9.989-4.306-14.322-1.856-3.195-4.825-6.244-8.834-6.06-4.231.184-7.349 3.562-9.093 7.051-2.376 4.628-3.86 9.879-5.234 14.837a133.081 133.081 0 00-4.751 31.253 140.85 140.85 0 00.446 16.784c.445 5.031.816 10.503 2.264 15.351 1.225 4.15 6.829 6.61 10.727 7.602a21.56 21.56 0 0013.919-1.139c.668-.293.074-1.248-.557-.954-3.935 1.726-8.352 2.093-12.546 1.175-3.674-.808-9.279-3.048-10.467-6.941-.631-2.094-.853-4.371-1.187-6.537-.409-2.608-.706-5.215-.965-7.86-.409-4.443-.631-8.924-.594-13.404.037-9.365 1.039-18.693 3.043-27.838.965-4.37 2.116-8.704 3.526-12.964 1.411-4.26 2.747-9.291 5.976-12.597 1.819-1.836 4.417-3.121 7.052-2.644 2.524.478 4.454 2.424 5.791 4.481 2.82 4.26 4.194 9.658 4.751 14.69 0 .734 1.113.771 1.039.036z" fill="#161616"/><path fill-rule="evenodd" clip-rule="evenodd" d="M167.351 182.339a102.387 102.387 0 004.157 39.92c1.93 6.17 4.194 13.001 8.128 18.252 3.489 4.664 8.946 7.749 14.476 9.475 6.384 2.02 13.399 2.13 19.449-.918.631-.33.074-1.285-.557-.955-5.53 2.791-11.877 2.791-17.704 1.102-5.976-1.726-11.952-5.105-15.441-10.32-3.415-5.141-5.567-11.348-7.349-17.224a100.122 100.122 0 01-3.86-18.399c-.78-6.941-.817-13.956-.186-20.897.075-.734-1.039-.734-1.113-.036z" fill="#161616"/><path fill-rule="evenodd" clip-rule="evenodd" d="M164.938 178.446a68.197 68.197 0 002.153 14.212c.186.698 1.262.404 1.076-.293a63.173 63.173 0 01-2.115-13.919c-.037-.698-1.151-.698-1.114 0zm21.008-6.978a555.97 555.97 0 0118.596 50.681c.223.661 1.299.404 1.076-.294a538.513 538.513 0 00-18.595-50.681c-.297-.624-1.374-.33-1.077.294zm-14.921 73.193a3819.6 3819.6 0 012.896 9.953c.185.697 1.261.404 1.076-.294-.965-3.305-1.93-6.611-2.895-9.953-.223-.661-1.299-.367-1.077.294z" fill="#161616"/><path fill-rule="evenodd" clip-rule="evenodd" d="M174.366 253.953a47.265 47.265 0 00-23.346-2.865c-.297.037-.706.331-.52.698.965 2.35 3.674 3.048 5.827 3.966 3.081 1.322 6.162 2.608 9.317 3.709 6.309 2.241 12.879 3.783 19.597 3.599.705 0 .705-1.101 0-1.101-5.939.147-11.766-1.029-17.37-2.902-2.71-.881-5.345-1.909-7.981-3.011-1.41-.588-2.858-1.175-4.268-1.8-1.448-.624-3.415-1.212-4.083-2.791a8.67 8.67 0 00-.519.698c7.831-1.028 15.7-.037 23.049 2.828.668.294.928-.771.297-1.028z" fill="#161616"/><path fill-rule="evenodd" clip-rule="evenodd" d="M180.379 242.678c.779 6.794 4.046 13.037 4.528 19.868.037.698 1.151.698 1.114 0-.483-6.831-3.749-13.074-4.529-19.868-.074-.698-1.187-.698-1.113 0z" fill="#161616"/><path opacity=".1" fill-rule="evenodd" clip-rule="evenodd" d="M169.467 243.009a148.375 148.375 0 01-4.677-13.846c-.705-2.534-5.234-19.097-4.269-40.544.26-5.619.891-11.826 5.419-16.343 1.745-1.726 3.712-3.673 5.419-3.269 7.127 1.653-5.678 39.113 12.249 59.348 9.205 10.393 22.493 11.715 24.646 11.899 19.078 1.689 31.957-11.862 33.59-13.625a23.25 23.25 0 01-1.559 9.622c-2.746 7.051-8.091 10.687-10.095 11.899-9.243 5.582-18.93 2.975-20.563 2.497a34.1 34.1 0 01-10.282 0c-9.13-1.395-15.292-6.169-18.038-8.63a14.758 14.758 0 01-6.199 1.726 14.165 14.165 0 01-5.641-.734z" fill="#4C4C4C"/><path opacity=".13" fill-rule="evenodd" clip-rule="evenodd" d="M166.349 178.078c.482-.036.668 4.297 3.118 18.437 2.858 16.709 4.305 25.046 6.421 29.784 2.672 6.023 9.576 16.82 30.287 24.789-2.969.11-7.906-.037-13.585-2.13a35.04 35.04 0 01-11.246-6.721c-2.338.514-4.677 1.029-6.978 1.543a164.01 164.01 0 01-4.677-16.71c-5.79-25.744-4.417-48.918-3.34-48.992z" fill="#4C4C4C"/><path fill-rule="evenodd" clip-rule="evenodd" d="M117.318 163.168c-.186.771.965 1.8 1.893 2.24 1.521.735 2.969.11 3.192 0 0 0 3.414-.367 6.569 1.469.965.551 1.856 1.726 3.563 4.077 3.155 4.26 3.564 5.692 5.642 7.051a9.724 9.724 0 003.749 1.469c.891.992 2.264 2.534 3.934 4.444 5.976 6.904 6.384 8.153 9.205 10.577 3.044 2.644 6.718 5.876 11.061 5.398 2.301-.257 4.157-1.506 7.126-4.444 6.162-6.133 10.43-12.89 14.253-20.602 4.12-8.3 5.048-12.34 5.456-14.286.223-1.212 2.413-12.156-.742-13.552-1.225-.551-2.821.514-5.233 2.424-8.723 6.904-13.882 14.139-14.253 14.653a118.474 118.474 0 00-9.576 16.343l-15.923-8.153c-.334-.698-.743-1.8-.743-3.158 0-2.241 1.151-3.085 1.893-5.583.78-2.57.891-6.096-.371-6.684-.891-.404-2.598.588-3.378 1.873-.816 1.322-.334 2.498-1.113 2.975-1.002.624-2.821-.624-3.006-.734-2.005-1.396-1.819-3.122-3.378-5.95-1.67-3.048-3.897-4.738-5.234-5.766-1.855-1.395-3.934-2.975-6.012-2.424-.335.074-1.708.478-2.19 1.69-.223.587-.149 1.138-.075 1.469-.148-.11-1.484-.918-2.969-.368-1.039.368-1.893 1.323-2.078 2.424-.075.478 0 .882.074 1.176-.186-.074-1.782-.478-2.895.477-.186.147-.817.698-.817 1.469 0 .624.445 1.138 1.225 1.763 1.67 1.359 2.932 1.689 4.491 2.534.78.404 1.819 1.102 3.007 2.167-2.042 0-6.051.183-6.347 1.542z" fill="#fff"/><path fill-rule="evenodd" clip-rule="evenodd" d="M163.602 180.612c6.496-12.523 13.659-25.927 26.984-32.501.631-.331.074-1.249-.557-.955-13.473 6.61-20.785 20.199-27.355 32.869-.371.661.594 1.212.928.587z" fill="#161616"/><path fill-rule="evenodd" clip-rule="evenodd" d="M147.234 172.974c5.716 3.782 12.842 5.362 17.741 10.319.52.515 1.3-.257.78-.771-4.974-5.031-12.174-6.647-17.965-10.503-.593-.404-1.15.551-.556.955z" fill="#161616"/><path fill-rule="evenodd" clip-rule="evenodd" d="M142.594 180.245a56.386 56.386 0 009.984 12.523c3.489 3.269 8.055 7.456 13.177 7.566 4.677.11 7.869-3.746 10.355-7.162 3.712-5.104 7.127-10.393 10.319-15.828 3.266-5.546 6.718-11.422 6.867-17.995 0-.698-1.114-.698-1.114 0-.148 7.051-4.231 13.368-7.794 19.244-3.415 5.692-6.941 11.752-11.358 16.709-2.042 2.314-4.677 4.224-7.906 3.893-3.6-.367-6.792-2.938-9.465-5.178-4.862-4.04-8.908-8.924-12.137-14.323-.334-.624-1.299-.073-.928.551z" fill="#161616"/><path fill-rule="evenodd" clip-rule="evenodd" d="M143.596 179.547c-1.485-.697-3.192-.918-4.639-1.726-1.485-.844-2.524-2.277-3.489-3.672-1.708-2.497-3.267-5.105-5.679-7.015-1.114-.881-2.413-1.616-3.823-1.983-1.559-.441-2.97-.183-4.566-.11-1.002.037-3.08.073-3.155-1.432-.111-1.469 1.968-1.249 2.821-1.286 1.893-.11 3.712 0 5.456.735.669.257.965-.808.297-1.065-2.078-.845-4.194-.882-6.421-.735-1.076.074-2.487.074-3.08 1.139-.52.918-.112 2.093.593 2.828 1.188 1.248 2.97.991 4.529.844 5.567-.551 8.871 3.856 11.617 8.006.965 1.469 1.967 2.938 3.341 4.04 1.67 1.322 3.748 1.506 5.604 2.424.668.257 1.262-.698.594-.992zm4.454-7.088c-2.004-2.313-.148-5.912.557-8.41.52-1.799 1.262-4.296.297-6.096-.557-1.065-1.782-1.726-2.969-1.285-.669.257-1.188.771-1.559 1.358-.52.845-.668 3.159-1.708 3.416-.705.147-.408 1.212.297 1.065 1.262-.294 1.522-1.543 1.893-2.608.186-.55.557-1.983 1.262-2.093l2.004 1.102a8.8 8.8 0 00.149.955c.074 1.322-.334 2.681-.668 3.929-.891 2.975-2.636 6.721-.297 9.475.408.515 1.188-.293.742-.808zm-30.139-15.02c-.556-.294-1.15-.624-1.596-1.028-.631-.331-.742-.808-.334-1.396-.037-.845.409-1.138 1.299-.992 1.671-.11 3.118.698 4.566 1.359 2.487 1.176 4.862 2.424 6.941 4.224.519.477 1.336-.294.779-.772-1.819-1.579-3.86-2.791-6.013-3.856-2.041-1.028-4.231-2.313-6.607-2.056-1.225.147-2.672.587-2.635 2.02.037 1.652 1.744 2.681 3.006 3.415.631.367 1.188-.588.594-.918z" fill="#161616"/><path fill-rule="evenodd" clip-rule="evenodd" d="M119.359 152.995c-1.967-1.469.594-2.46 1.373-2.607.743-.111 1.485.073 2.19.293 1.188.404 2.264 1.102 3.304 1.8 2.004 1.359 3.823 2.938 5.53 4.664.52.514 1.299-.257.779-.771-2.783-2.791-6.792-6.758-10.986-7.125-2.635-.22-5.493 2.608-2.747 4.664.557.478 1.114-.477.557-.918z" fill="#161616"/><path fill-rule="evenodd" clip-rule="evenodd" d="M124.184 149.69c-1.336-1.653 1.67-2.24 2.561-2.093.371.073.705.183 1.077.293 1.187.404 2.264 1.065 3.229 1.837 1.744 1.358 3.192 3.085 4.528 4.847.445.551 1.41 0 .965-.551-2.338-3.048-5.085-6.243-8.982-7.345-1.299-.367-3.007-.477-4.046.588-.928.955-.928 2.24-.111 3.195.445.551 1.225-.22.779-.771z" fill="#161616"/><path fill-rule="evenodd" clip-rule="evenodd" d="M135.208 153.803c1.373 2.314 2.598 4.774 4.157 6.978.965 1.359 2.375 2.35 4.083 1.652.668-.257.371-1.322-.297-1.065-2.264.882-3.452-2.203-4.343-3.709-.891-1.469-1.744-2.975-2.635-4.444-.334-.587-1.299-.036-.965.588zm-18.224 4.15c2.078 1.359 4.194 2.681 6.272 4.04.594.404 1.151-.551.557-.955-2.079-1.359-4.194-2.681-6.273-4.04-.594-.367-1.15.588-.556.955z" fill="#161616"/><path opacity=".12" fill-rule="evenodd" clip-rule="evenodd" d="M115.87 154.317c1.485-.698 3.749 1.249 5.159 2.387 6.867 5.546 7.201 3.599 11.135 7.602 4.009 4.04 3.897 6.244 7.906 8.668a17.568 17.568 0 004.899 2.019c.706.992 1.745 2.461 3.118 4.15 4.937 6.134 7.498 9.329 11.506 10.798.335.11 6.756 2.387 12.101-.698 4.268-2.461 4.268-6.39 9.242-19.207 6.272-16.159 8.796-18.179 10.429-18.032.965.073 1.856.954 2.265 1.652.853 1.432.185 2.975-.706 6.537-.853 3.379-.668 3.526-1.187 5.582-1.448 5.436-4.046 8.447-11.395 20.75-1.188 1.947-2.784 4.664-5.531 7.823-2.338 2.717-3.823 4.333-6.124 5.104-3.86 1.286-7.646-.697-9.465-1.652-2.449-1.286-4.194-2.865-6.941-6.06-2.561-2.938-5.827-7.088-9.242-12.45-.779 0-2.004-.147-3.34-.697-1.151-.515-2.635-1.433-6.236-6.538-2.561-3.635-2.524-4.149-3.823-4.994-2.041-1.322-4.565-1.543-5.864-1.653-3.007-.294-4.603.331-5.382-.698-.483-.661-.52-1.762 0-2.387 1.262-1.542 5.567.368 5.753-.11.111-.33-1.596-1.212-4.565-2.975-3.526-2.093-4.64-2.901-4.566-3.782.037-.551.446-.955.854-1.139z" fill="#4C4C4C"/><path fill-rule="evenodd" clip-rule="evenodd" d="M237.724 140.325c-2.004.404-2.784 4.114-3.563 7.602-.965 4.481-1.039 8.264-.928 11.128.26 7.896 1.967 15.425 4.12 19.868 1.151 2.388 1.856 2.681 3.192 5.766.446 1.029.78 1.91 1.67 2.608 1.708 1.285 3.935.808 4.12.734 2.302-.551 3.526-2.534 4.12-3.525 1.671-2.828 1.708-5.729 1.299-10.761-.594-7.602-.89-11.385-2.078-15.388-1.039-3.562-2.784-8.042-6.013-12.633-1.93-2.865-4.009-5.766-5.939-5.399z" fill="#fff"/><path fill-rule="evenodd" clip-rule="evenodd" d="M237.761 141.317c2.005-.221 3.452 2.203 4.491 3.635.928 1.286 1.782 2.645 2.599 4.003a46.077 46.077 0 013.86 8.888c1.93 6.096 2.746 12.486 2.672 18.877-.037 3.305 0 7.638-2.821 9.989-1.299 1.065-3.266 1.726-4.862.955-1.67-.808-2.635-3.012-3.489-4.518a51.864 51.864 0 01-6.31-19.794c-.816-7.529-.26-15.792 3.935-22.293.371-.587-.594-1.138-.965-.55-4.306 6.684-4.9 15.167-4.083 22.843.816 7.932 3.452 15.828 7.794 22.549 1.596 2.46 3.823 3.929 6.793 2.791 3.08-1.175 4.454-4.223 4.862-7.272 1.039-7.198.037-15.167-1.93-22.145-1.151-4.076-2.784-8.006-4.937-11.678a43.434 43.434 0 00-3.489-5.032c-1.076-1.322-2.264-2.571-4.083-2.387-.742.11-.742 1.212-.037 1.139z" fill="#161616"/><path opacity=".11" fill-rule="evenodd" clip-rule="evenodd" d="M238.912 141.28a52.874 52.874 0 00-.854 16.012c.594 5.692 2.005 9.879 3.823 15.314a117.912 117.912 0 006.236 14.948c-.78.477-2.004 1.028-3.341.844-2.709-.404-4.305-3.525-5.382-5.949-3.934-8.667-5.901-13.001-6.235-20.419-.483-10.173 2.264-21.448 4.677-21.485.445 0 .816.404 1.076.735z" fill="#4C4C4C"/><path fill-rule="evenodd" clip-rule="evenodd" d="M186.726 147.56c-.186 1.579-.371 3.819-.557 6.5-.148 2.02-.52 7.933-.371 13.552.334 11.091 2.784 19.905 4.305 25.23a122.438 122.438 0 003.935 11.495c.111 1.065.371 2.571.928 4.26 2.672 7.933 9.576 11.862 11.246 12.817 8.351 4.628 16.666 2.938 19.115 2.424 2.45-.551 10.356-2.35 15.552-9.291 1.707-2.241 3.229-5.179 4.677-13.001.668-3.636 2.227-13.184 1.113-29.49-1.15-16.6-3.86-22.844-5.456-25.965-1.41-2.828-2.895-5.031-3.934-6.5-8.648-3.526-15.849-3.6-19.895-3.342-6.792.44-11.988 2.46-17.073 4.443a83.91 83.91 0 00-13.585 6.868z" fill="#669380"/><path fill-rule="evenodd" clip-rule="evenodd" d="M185.946 148.551c-2.746 19.391.186 39.26 8.389 57.071.297.661 1.262.074.965-.551-8.092-17.517-10.987-37.165-8.277-56.226.074-.698-1.002-.991-1.077-.294z" fill="#161616"/><path fill-rule="evenodd" clip-rule="evenodd" d="M192.813 202.905c1.336 9.218 8.054 17.187 16.888 20.382 9.428 3.416 20.748 1.396 28.283-5.141 3.934-3.379 6.644-7.933 7.164-13.111.074-.698-1.04-.698-1.114 0-1.225 12.376-15.069 19.391-26.501 18.693-11.803-.698-21.973-9.475-23.644-21.154-.111-.661-1.187-.367-1.076.331zm-6.199-54.354c14.736-9.181 33.183-15.681 50.145-8.446.668.293 1.225-.661.557-.955-17.371-7.419-36.152-.992-51.295 8.447-.557.404 0 1.358.593.954z" fill="#161616"/><path fill-rule="evenodd" clip-rule="evenodd" d="M236.759 139.994c4.009 3.636 5.568 9.733 6.718 14.837 1.262 5.583 2.005 11.312 2.487 17.041.965 11.348.631 22.806-1.67 34.007-.149.698.928.992 1.076.294 2.45-11.752 2.747-23.761 1.596-35.697-.556-5.765-1.299-11.605-2.709-17.26-1.225-4.848-2.858-10.504-6.681-13.993-.557-.477-1.336.294-.817.771zm-37.376 69.08c4.676 4.224 10.429 6.868 16.702 7.639.705.074.705-1.028 0-1.101a28.742 28.742 0 01-15.923-7.345c-.52-.441-1.336.33-.779.807z" fill="#161616"/><path opacity=".15" fill-rule="evenodd" clip-rule="evenodd" d="M216.197 136.689c1.373 2.13 2.783 4.297 4.157 6.427a138.615 138.615 0 018.574 29.454c1.076 6.28 2.115 12.156 1.744 19.501-.334 6.61-2.041 18.583-10.652 32.428 1.893-.037 4.639-.257 7.757-1.249 1.299-.404 10.875-3.599 15.515-12.596 1.93-3.746 2.264-7.088 2.561-11.128 1.559-21.668.111-35.66-.705-40.471-.669-3.967-1.634-8.557-4.269-13.772a40.857 40.857 0 00-3.823-6.06 37.882 37.882 0 00-11.135-2.864 38.228 38.228 0 00-9.724.33z" fill="#414141"/><path opacity=".11" fill-rule="evenodd" clip-rule="evenodd" d="M241.584 148.294c-1.336.074-2.004 8.043-2.449 13.405-1.002 12.266-.26 21.117-.112 24.312.409 8.594-1.633 21.007-12.619 37.35a30.52 30.52 0 007.2-2.865c2.45-1.359 5.939-3.305 8.463-7.345a19.114 19.114 0 002.672-7.565 134.874 134.874 0 001.967-28.095c-.556-13.809-3.266-29.307-5.122-29.197z" fill="#4C4C4C"/><path fill-rule="evenodd" clip-rule="evenodd" d="M187.877 175.655c2.078 29.931.334 59.935-1.411 89.829-.074 1.433 2.153 1.396 2.227 0 1.782-29.894 3.489-59.898 1.411-89.829-.112-1.433-2.339-1.433-2.227 0z" fill="#000"/><path fill-rule="evenodd" clip-rule="evenodd" d="M188.656 174.296c10.949.44 22.938.404 35.855-.404a338.326 338.326 0 0027.429-2.791c-.186 9.328-.408 18.619-.594 27.948a230.511 230.511 0 01-32.44 3.966c-10.764.551-20.6.257-29.248-.404l-1.002-28.315z" fill="#000" stroke="#000" stroke-width="2"/><path fill-rule="evenodd" clip-rule="evenodd" d="M250.233 177.27c-2.747 28.205-5.457 56.41-8.203 84.615-.149 1.396 2.078 1.396 2.227 0 2.746-28.205 5.456-56.41 8.203-84.615.148-1.395-2.079-1.395-2.227 0z" fill="#000"/><path fill-rule="evenodd" clip-rule="evenodd" d="M183.274 115.499c-.26.734 0 2.167.297 4.003.074.514.297 1.542.816 3.268.928 3.012 2.005 5.215 2.265 5.729 2.635 5.289 5.901 8.704 6.829 9.622a38.256 38.256 0 004.046 3.489c3.229-1.285 6.458-2.607 9.724-3.893 1.151-.844 2.933-2.387 4.12-4.921 2.153-4.59 1.002-9.622-.705-12.56-5.976-10.319-26.093-8.336-27.392-4.737z" fill="#fff"/><path fill-rule="evenodd" clip-rule="evenodd" d="M182.68 118.473c1.114 4.958 2.969 9.733 5.642 14.103 1.262 2.057 2.709 4.003 4.268 5.839 1.374 1.616 2.821 3.195 5.011 3.709.705.147 1.002-.918.297-1.065-2.301-.514-3.86-2.607-5.308-4.37-1.484-1.799-2.784-3.746-3.934-5.729a44.297 44.297 0 01-4.9-12.78c-.148-.661-1.224-.368-1.076.293z" fill="#161616"/><path fill-rule="evenodd" clip-rule="evenodd" d="M191.068 127.508c-.148-3.195 3.712-2.204 4.974-.551 1.485 1.91 1.076 6.023-2.19 5.472-.705-.11-1.002.955-.297 1.065 4.194.698 5.605-4.37 3.378-7.235-1.93-2.497-7.201-3.048-6.978 1.212.037.735 1.151.735 1.113.037z" fill="#161616"/><path fill-rule="evenodd" clip-rule="evenodd" d="M182.866 117.666c-.483-1.69-1.299-4.407.148-7.088 1.262-2.277 3.452-3.232 4.343-3.526-.037-.514-.149-3.379 2.078-5.766 2.265-2.387 5.16-2.497 5.679-2.497.928-.698 2.264-1.58 4.046-2.204.631-.22 3.563-1.248 7.015-.734 4.751.698 5.568 3.525 10.875 5.766 1.782.734 4.603 1.652 8.5 1.762-.928 1.065-1.893 2.167-2.821 3.232.705.772 1.67 1.983 2.376 3.673.371.844 1.039 2.791.89 6.5-.148 3.599-1.039 6.501-1.781 8.998-1.336 4.333-2.116 5.619-1.336 7.382.853 1.983 2.895 2.534 2.635 3.378-.297.918-2.895 1.029-4.714.808-2.709-.33-4.417-1.505-4.714-1.102-.371.478 2.19 2.167 1.782 3.269-.483 1.432-5.345 1.212-8.834.404-1.188-.257-3.266-.881-5.716-2.24a22.662 22.662 0 01-6.421-5.325c.928-2.057.816-4.334-.446-5.913-.111-.147-1.967-2.387-4.194-1.763-1.225.367-1.893 1.432-2.078 1.763-1.596-.882-5.79-3.636-7.312-8.777z" fill="#214B41"/><path opacity=".24" fill-rule="evenodd" clip-rule="evenodd" d="M187.431 107.309c.779 2.314 5.864 1.873 9.65 3.122 2.71.881 6.31 3.195 9.539 9.585-.89-2.865-5.01-14.69-14.809-17.334a14.916 14.916 0 00-3.081-.514c-.371.44-1.113 1.469-1.336 2.901 0 .183-.223 1.432.037 2.24z" fill="#202020"/><path opacity=".17" fill-rule="evenodd" clip-rule="evenodd" d="M195.337 98.569a12.865 12.865 0 012.858-1.69 13.845 13.845 0 012.561-.771 31.453 31.453 0 008.834 5.362c6.718 2.681 12.731 2.35 15.811 1.946-.482.882-1.336 2.13-2.746 3.122-5.159 3.636-12.88.514-16.554-.955-2.561-1.028-6.644-3.048-10.764-7.014z" fill="#202020"/><path opacity=".14" fill-rule="evenodd" clip-rule="evenodd" d="M213.598 123.835c-.593.184.186 4.334.446 5.583.594 2.864 1.522 5.178 2.301 6.72 1.188.368 2.376.772 3.526 1.139-4.38-11.275-5.79-13.589-6.273-13.442z" fill="#4C4C4C"/><path opacity=".12" fill-rule="evenodd" clip-rule="evenodd" d="M196.042 128.279c.111.918.186 1.763-.297 2.461-.594.844-1.522.697-2.338 1.909-.297.441-.297.661-.223.772.186.33.965.183 1.336.183 1.93.074 3.081 2.02 4.417 3.159 1.077.954 2.932 1.946 6.273 2.02a34.401 34.401 0 01-5.456-3.636 33.802 33.802 0 01-2.858-2.644c.371-.808 1.039-2.608.334-4.444-.52-1.396-1.708-2.387-1.856-2.277-.186.11.483.955.668 2.497z" fill="#4C4C4C"/></svg>