<svg width="35" height="35" viewBox="0 0 35 35" fill="none" xmlns="http://www.w3.org/2000/svg"><path d="M26.25 26.25v4.375H8.75V26.25H6.562v4.375a2.187 2.187 0 002.188 2.188h17.5a2.188 2.188 0 002.188-2.188V26.25H26.25z" fill="#126047"/><path d="M22.969 22.969l-1.547-1.547-2.828 2.829v-8.939h-2.188v8.939l-2.828-2.829-1.547 1.547 5.469 5.468 5.469-5.468zm7.656-18.594V2.187h-6.563v10.938h2.188V8.75h3.281V6.562H26.25V4.376h4.375zm-12.031 8.75h-4.375V2.187h4.375a3.285 3.285 0 013.281 3.282v4.375a3.285 3.285 0 01-3.281 3.281zm-2.188-2.188h2.188a1.095 1.095 0 001.093-1.093V5.469a1.095 1.095 0 00-1.093-1.094h-2.188v6.563zM9.844 2.188H4.375v10.937h2.188V9.844h3.28a2.191 2.191 0 002.188-2.188V4.375a2.19 2.19 0 00-2.187-2.188zM6.563 7.655v-3.28h3.28l.002 3.281H6.562z" fill="#126047"/></svg>