<svg width="128" height="38" viewBox="0 0 128 38" fill="none" xmlns="http://www.w3.org/2000/svg"><path d="M5.418 4.244c1.368 0 2.424.45 3.168 1.35.744.888 1.116 2.1 1.116 3.636s-.378 2.754-1.134 3.654c-.756.9-1.812 1.35-3.168 1.35-1.368 0-2.43-.438-3.186-1.314-.744-.888-1.116-2.112-1.116-3.672 0-1.512.378-2.724 1.134-3.636C3 4.7 4.062 4.244 5.418 4.244zm0 1.566c-.732 0-1.284.282-1.656.846-.36.564-.54 1.428-.54 2.592 0 1.176.18 2.046.54 2.61.36.552.906.828 1.638.828.732 0 1.278-.282 1.638-.846.36-.564.54-1.434.54-2.61 0-1.164-.18-2.022-.54-2.574-.36-.564-.9-.846-1.62-.846zm8.993-.144a3.868 3.868 0 011.332-1.062 3.797 3.797 0 011.62-.36c.876 0 1.536.246 1.98.738.444.48.666 1.176.666 2.088V14h-2.016V7.376c0-.564-.108-.966-.324-1.206-.216-.252-.564-.378-1.044-.378-.42 0-.828.138-1.224.414a3.882 3.882 0 00-.99.99V14h-2.016V.698l2.016-.216v5.184zm21.586 0a3.868 3.868 0 011.332-1.062 3.797 3.797 0 011.62-.36c.876 0 1.536.246 1.98.738.444.48.666 1.176.666 2.088V14h-2.016V7.376c0-.564-.108-.966-.324-1.206-.216-.252-.564-.378-1.044-.378-.42 0-.828.138-1.224.414a3.882 3.882 0 00-.99.99V14H33.98V.698l2.016-.216v5.184zm10.451 4.23c.06.924.324 1.62.792 2.088.48.456 1.08.684 1.8.684.444 0 .864-.066 1.26-.198a5.77 5.77 0 001.242-.63l.864 1.224c-.444.372-.966.66-1.566.864a5.83 5.83 0 01-1.89.306c-1.452 0-2.58-.45-3.384-1.35-.804-.912-1.206-2.124-1.206-3.636 0-.948.174-1.8.522-2.556.348-.768.852-1.368 1.512-1.8.66-.432 1.428-.648 2.304-.648 1.26 0 2.256.426 2.988 1.278.744.84 1.116 1.998 1.116 3.474 0 .36-.018.66-.054.9h-6.3zm2.268-4.158c-.648 0-1.176.234-1.584.702-.408.468-.642 1.164-.702 2.088h4.41c-.024-.9-.216-1.59-.576-2.07-.36-.48-.876-.72-1.548-.72zm11.891 8.298c-.384 1.152-.942 2.052-1.674 2.7-.72.66-1.716 1.044-2.988 1.152l-.252-1.512c.624-.096 1.128-.246 1.512-.45.384-.192.69-.438.918-.738.228-.3.432-.696.612-1.188h-.684l-3.204-9.504h2.142l2.394 8.1 2.43-8.1h2.07l-3.276 9.54zm9.551-3.276c.468 0 .858.156 1.17.468.324.312.486.696.486 1.152a2.6 2.6 0 01-.126.792 7.119 7.119 0 01-.396 1.026l-1.386 3.186H68.34l.864-3.654a1.684 1.684 0 01-.504-.576c-.12-.24-.18-.498-.18-.774 0-.456.156-.84.468-1.152a1.626 1.626 0 011.17-.468zM9.4 24.6l-6.86 4.14 6.86 4.12-1.1 1.62L.62 29.7v-1.94l7.74-4.78L9.4 24.6zm9.592-4.66c1.147 0 2.2.207 3.16.62l-.68 1.56c-.68-.293-1.433-.44-2.26-.44-.693 0-1.206.133-1.54.4-.333.267-.5.68-.5 1.24v1.88h3.54l-.26 1.66h-3.28V35h-2.24v-8.14h-2.4V25.2h2.4v-1.9c0-.667.167-1.253.5-1.76.347-.507.827-.9 1.44-1.18.613-.28 1.32-.42 2.12-.42zm12.852 4.24c.547 0 1.08.087 1.6.26l-.38 3.9h-1.6v-2.16c-.733.013-1.373.307-1.92.88-.533.573-.96 1.38-1.28 2.42v3.92h2.12V35h-5.92v-1.6h1.56v-7.36h-1.56v-1.6h3.26l.4 2.44c.414-.907.914-1.58 1.5-2.02.6-.453 1.34-.68 2.22-.68zm8.553-.02c1.52 0 2.693.5 3.52 1.5.826.987 1.24 2.333 1.24 4.04 0 1.707-.42 3.06-1.26 4.06-.84 1-2.014 1.5-3.52 1.5-1.52 0-2.7-.487-3.54-1.46-.827-.987-1.24-2.347-1.24-4.08 0-1.68.42-3.027 1.26-4.04.853-1.013 2.033-1.52 3.54-1.52zm0 1.74c-.814 0-1.427.313-1.84.94-.4.627-.6 1.587-.6 2.88 0 1.307.2 2.273.6 2.9.4.613 1.006.92 1.82.92.813 0 1.42-.313 1.82-.94.4-.627.6-1.593.6-2.9 0-1.293-.2-2.247-.6-2.86-.4-.627-1-.94-1.8-.94zm7.552-1.46h1.94l.16 1.38c.44-.533.953-.94 1.54-1.22a4.23 4.23 0 011.88-.44c.973 0 1.706.273 2.2.82.493.547.74 1.32.74 2.32V35h-2.24v-6.58c0-.653-.04-1.153-.12-1.5-.067-.36-.207-.62-.42-.78-.214-.173-.534-.26-.96-.26-.48 0-.94.147-1.38.44-.427.293-.794.66-1.1 1.1V35h-2.24V24.44zm20.611 10c-.4.253-.866.453-1.4.6a6.307 6.307 0 01-1.68.22c-1.2 0-2.126-.307-2.78-.92-.652-.627-.98-1.473-.98-2.54v-5.72h-2.34v-1.64h2.34v-2.36l2.24-.26v2.62h3.58l-.26 1.64h-3.32v5.7c0 .573.148 1 .44 1.28.294.267.76.4 1.4.4a3.97 3.97 0 001.96-.5l.8 1.48zm4.833-4c.067 1.027.36 1.8.88 2.32.533.507 1.2.76 2 .76.493 0 .96-.073 1.4-.22.453-.16.913-.393 1.38-.7l.96 1.36a5.37 5.37 0 01-1.74.96 6.478 6.478 0 01-2.1.34c-1.613 0-2.867-.5-3.76-1.5-.893-1.013-1.34-2.36-1.34-4.04 0-1.053.194-2 .58-2.84.387-.853.947-1.52 1.68-2 .734-.48 1.587-.72 2.56-.72 1.4 0 2.507.473 3.32 1.42.827.933 1.24 2.22 1.24 3.86 0 .4-.02.733-.06 1h-7zm2.52-4.62c-.72 0-1.306.26-1.76.78-.453.52-.713 1.293-.78 2.32h4.9c-.026-1-.24-1.767-.64-2.3-.4-.533-.973-.8-1.72-.8zm7.412-1.38h1.94l.16 1.38c.44-.533.954-.94 1.54-1.22a4.23 4.23 0 011.88-.44c.974 0 1.707.273 2.2.82.494.547.74 1.32.74 2.32V35h-2.24v-6.58c0-.653-.04-1.153-.12-1.5-.066-.36-.206-.62-.42-.78-.213-.173-.533-.26-.96-.26-.48 0-.94.147-1.38.44-.426.293-.793.66-1.1 1.1V35h-2.24V24.44zm20.232-4.24V35h-1.98l-.16-1.3a3.53 3.53 0 01-1.28 1.16c-.506.267-1.066.4-1.68.4-1.32 0-2.313-.493-2.98-1.48-.666-.987-1-2.34-1-4.06 0-1.08.167-2.04.5-2.88.347-.84.834-1.493 1.46-1.96.627-.48 1.367-.72 2.22-.72 1.08 0 1.967.387 2.66 1.16v-5.38l2.24.26zm-4.32 5.68c-.773 0-1.366.32-1.78.96-.4.627-.6 1.587-.6 2.88 0 2.56.734 3.84 2.2 3.84.88 0 1.634-.507 2.26-1.52v-4.98c-.546-.787-1.24-1.18-2.08-1.18zm6.773 10.44l8.48-17.56 1.76.82-8.46 17.54-1.78-.8zm21.312-8.56v1.94l-7.68 4.78-1.1-1.6 6.84-4.14-6.84-4.1 1.04-1.66 7.74 4.78z" fill="#202020"/></svg>